<svg id="Grupo_10617" data-name="Grupo 10617" xmlns="http://www.w3.org/2000/svg" width="40" height="40" viewBox="0 0 40 40">
  <defs>
    <style>
      .cls-1 {
        fill: #fff;
      }
    </style>
  </defs>
  <g id="Grupo_10546" data-name="Grupo 10546">
    <g id="Grupo_4624" data-name="Grupo 4624" transform="translate(0 0)">
      <path id="Sustracción_117" data-name="Sustracción 117" class="cls-1" d="M23.418,40h0V25.845a2.7,2.7,0,0,0-.055-.539,9.249,9.249,0,0,0,4.211-3.241,8.681,8.681,0,0,0,1.64-5.082,8.96,8.96,0,0,0-5.6-8.224v8.224H16.2V8.759a8.96,8.96,0,0,0-5.6,8.224,8.681,8.681,0,0,0,1.639,5.082,9.249,9.249,0,0,0,4.21,3.241,2.89,2.89,0,0,0-.055.539l.016,14.126a19.733,19.733,0,0,1-6.5-2.424A20.222,20.222,0,0,1,5.858,5.9a19.972,19.972,0,0,1,32.57,6.4,20.207,20.207,0,0,1-8.45,25.306A19.729,19.729,0,0,1,23.418,40Z"/>
    </g>
  </g>
</svg>
