<svg xmlns="http://www.w3.org/2000/svg" width="40" height="40" viewBox="0 0 40 40">
  <defs>
    <style>
      .cls-1 {
        fill: #fff;
      }
    </style>
  </defs>
  <g id="Grupo_10727" data-name="Grupo 10727" transform="translate(-538.338 -249)">
    <g id="Grupo_10639" data-name="Grupo 10639" transform="translate(538.338 249)">
      <g id="Grupo_10613" data-name="Grupo 10613">
        <path id="Sustracción_142" data-name="Sustracción 142" class="cls-1" d="M20,40A19.993,19.993,0,0,1,5.858,5.858,20,20,0,1,1,27.785,38.428,19.877,19.877,0,0,1,20,40Zm-2.1-7.07a.679.679,0,0,0,0,1.357h4.057a.679.679,0,0,0,0-1.357Zm-.843-1.73a.678.678,0,0,0,0,1.356H22.8a.678.678,0,1,0,0-1.356Zm-.5-1.727a.676.676,0,1,0,0,1.352H23.3a.676.676,0,1,0,0-1.352ZM19.931,10.6a7.765,7.765,0,0,0-7.754,7.758A13.56,13.56,0,0,0,15.149,25.7a4.864,4.864,0,0,1,.5,2.623.653.653,0,0,0-.008.09.679.679,0,0,0,.679.678h7.215a.681.681,0,0,0,.682-.678A.6.6,0,0,0,24.2,28.3a5.093,5.093,0,0,1,.51-2.591,13.577,13.577,0,0,0,2.98-7.355A7.768,7.768,0,0,0,19.931,10.6ZM11.6,23.212a.4.4,0,0,0-.2.053L7.7,25.4a.408.408,0,0,0,.2.76.462.462,0,0,0,.2-.052l3.694-2.135a.4.4,0,0,0,.146-.552A.411.411,0,0,0,11.6,23.212Zm16.669,0a.412.412,0,0,0-.355.2.408.408,0,0,0,.15.554l3.69,2.129a.407.407,0,1,0,.41-.7l-3.694-2.13A.4.4,0,0,0,28.268,23.208ZM6.035,18.388a.406.406,0,1,0,0,.813h4.257a.407.407,0,1,0,0-.813Zm23.535,0a.413.413,0,0,0-.408.407.408.408,0,0,0,.408.406h4.4a.406.406,0,1,0,0-.813ZM7.906,11.437a.405.405,0,0,0-.35.2.4.4,0,0,0,.146.553l3.693,2.13a.381.381,0,0,0,.2.053.405.405,0,0,0,.2-.756L8.109,11.493A.4.4,0,0,0,7.906,11.437Zm24.05-.009a.413.413,0,0,0-.2.054l-3.691,2.13a.413.413,0,0,0-.149.556.419.419,0,0,0,.353.2.377.377,0,0,0,.2-.058l3.689-2.13a.405.405,0,0,0-.2-.757ZM12.974,6.364a.4.4,0,0,0-.2.054.408.408,0,0,0-.149.556l2.134,3.687a.4.4,0,0,0,.349.207.391.391,0,0,0,.2-.057.408.408,0,0,0,.15-.554L13.329,6.568A.412.412,0,0,0,12.974,6.364Zm13.91,0a.4.4,0,0,0-.351.2L24.4,10.255a.393.393,0,0,0-.042.3.4.4,0,0,0,.191.247.369.369,0,0,0,.2.058.408.408,0,0,0,.352-.2l2.131-3.69a.408.408,0,0,0-.15-.557A.4.4,0,0,0,26.884,6.36ZM19.931,4.48a.408.408,0,0,0-.407.407V9.148a.405.405,0,1,0,.811,0V4.888A.406.406,0,0,0,19.931,4.48Z"/>
      </g>
    </g>
  </g>
</svg>
