<svg xmlns="http://www.w3.org/2000/svg" width="40" height="40" viewBox="0 0 40 40">
  <defs>
    <style>
      .cls-1 {
        fill: #fff;
      }
    </style>
  </defs>
  <path id="Sustracción_57" data-name="Sustracción 57" class="cls-1" d="M20,40A19.906,19.906,0,0,1,8.818,36.584a20.058,20.058,0,0,1-7.246-8.8A19.974,19.974,0,0,1,3.416,8.818a20.058,20.058,0,0,1,8.8-7.246A19.974,19.974,0,0,1,31.182,3.416a20.058,20.058,0,0,1,7.246,8.8,19.974,19.974,0,0,1-1.844,18.967,20.058,20.058,0,0,1-8.8,7.246A19.875,19.875,0,0,1,20,40ZM19.777,5.851a5.218,5.218,0,0,0-2.658.735c-2.659,1.551-6.373,3.7-7.846,4.551l-.078.045c-1.571,1.1-2.219,1.893-2.166,3.962l-.017,9.667a4.436,4.436,0,0,0,.425,2.117A4.262,4.262,0,0,0,8.561,28.3c.145.121.785.509.989.629l7.727,4.6a5.445,5.445,0,0,0,5.388,0l8.38-4.9a4.4,4.4,0,0,0,1.486-1.194,2.673,2.673,0,0,0,.479-1.642l.017-10.6a4.8,4.8,0,0,0-.5-2.351A4.5,4.5,0,0,0,30.6,11.162L22.982,6.744A6.785,6.785,0,0,0,19.777,5.851Zm.249,22.678a.077.077,0,0,1-.038-.01l-7.319-4.233a.077.077,0,0,1-.038-.066l.006-8.454a.077.077,0,0,1,.038-.066c.027-.016,5.433-3.16,7.289-4.234A.069.069,0,0,1,20,11.459a.2.2,0,0,1,.081.018L27.4,15.71a.076.076,0,0,1,.038.066l-.006,8.455a.077.077,0,0,1-.038.066l-7.325,4.222A.08.08,0,0,1,20.026,28.529Z" transform="translate(0)"/>
</svg>
