<svg xmlns="http://www.w3.org/2000/svg" width="98.996" height="99.002" viewBox="0 0 98.996 99.002">
  <defs>
    <style>
      .cls-1 {
        fill: #f15d3a;
      }
    </style>
  </defs>
  <path id="Sustracción_118" data-name="Sustracción 118" class="cls-1" d="M-614.5,23276h-.076c.48,0,.943-.008,1.414-.02C-613.623,23275.994-614.074,23276-614.5,23276Zm1.339-.018v0c.233-.006.472-.012.711-.021C-612.691,23275.971-612.93,23275.977-613.165,23275.982Zm7.093-.7v0l.033-.01V23240.5a6.325,6.325,0,0,0-.14-1.326,22.87,22.87,0,0,0,10.423-7.963,21.222,21.222,0,0,0,4.058-12.488,21.241,21.241,0,0,0-3.87-12.225,22.868,22.868,0,0,0-9.986-7.982v20.207H-623.9v-20.207a22.859,22.859,0,0,0-9.986,7.982,21.241,21.241,0,0,0-3.87,12.225,21.222,21.222,0,0,0,4.058,12.488,22.872,22.872,0,0,0,10.423,7.963,6.7,6.7,0,0,0-.134,1.326l.035,34.705a49.026,49.026,0,0,1-16.1-5.955,49.6,49.6,0,0,1-12.883-10.85,49.3,49.3,0,0,1-8.55-14.623,49.346,49.346,0,0,1-3.1-17.279,49.19,49.19,0,0,1,3.889-19.268A49.3,49.3,0,0,1-649.5,23191.5a49.321,49.321,0,0,1,15.732-10.609A49.175,49.175,0,0,1-614.5,23177a49.181,49.181,0,0,1,19.268,3.891A49.33,49.33,0,0,1-579.5,23191.5a49.307,49.307,0,0,1,10.609,15.734A49.18,49.18,0,0,1-565,23226.5a49.315,49.315,0,0,1-3.14,17.387,49.317,49.317,0,0,1-8.658,14.689,49.617,49.617,0,0,1-13.034,10.85A49.127,49.127,0,0,1-606.072,23275.287Z" transform="translate(663.998 -23176.998)"/>
</svg>
