<svg xmlns="http://www.w3.org/2000/svg" width="99" height="99" viewBox="0 0 99 99">
  <defs>
    <style>
      .cls-1 {
        opacity: 0.894;
      }

      .cls-2, .cls-3 {
        fill: none;
      }

      .cls-4, .cls-5 {
        fill: #f04a23;
      }

      .cls-4 {
        stroke: #f04a23;
      }

      .cls-6, .cls-7 {
        stroke: none;
      }

      .cls-7 {
        fill: #f04a23;
      }
    </style>
  </defs>
  <g id="Grupo_9884" data-name="Grupo 9884" class="cls-1" transform="translate(-452.235 -831.238)">
    <g id="Grupo_9883" data-name="Grupo 9883">
      <circle id="Elipse_581" data-name="Elipse 581" class="cls-2" cx="47.751" cy="47.751" r="47.751" transform="translate(453.984 832.955)"/>
      <g id="Trazado_4050" data-name="Trazado 4050" class="cls-3" transform="translate(452.235 831.238)">
        <path class="cls-6" d="M49.5,99A49.5,49.5,0,1,1,99,49.5,49.5,49.5,0,0,1,49.5,99Z"/>
        <path class="cls-7" d="M 49.50004577636719 96.00003051757812 C 55.77873992919922 96.00003051757812 61.86804580688477 94.77096557617188 67.59884643554688 92.34700012207031 C 73.13565826416016 90.00507354736328 78.10887908935547 86.65178680419922 82.38034057617188 82.38027954101562 C 86.65181732177734 78.10875701904297 90.00507354736328 73.13547515869141 92.34698486328125 67.59858703613281 C 94.77095031738281 61.86769104003906 96 55.77824401855469 96 49.49943161010742 C 96 43.22076797485352 94.77095031738281 37.13149261474609 92.34700012207031 31.40073776245117 C 90.00508880615234 25.86400032043457 86.65184783935547 20.89084625244141 82.38037109375 16.61944580078125 C 78.10890960693359 12.34804534912109 73.13568878173828 8.994845390319824 67.598876953125 6.652984142303467 C 61.86807632446289 4.229092121124268 55.77875518798828 3.000061273574829 49.50004577636719 3.000061273574829 C 43.22118377685547 3.000061273574829 37.13177108764648 4.229092121124268 31.40092277526855 6.652999401092529 C 25.86407661437988 8.994845390319824 20.89087677001953 12.34804534912109 16.61943054199219 16.61944580078125 C 12.34801578521729 20.89083099365234 8.994799613952637 25.86396980285645 6.652938365936279 31.40072250366211 C 4.229030609130859 37.13146209716797 3 43.22073745727539 3 49.49943161010742 C 3 55.77827835083008 4.229030609130859 61.86772155761719 6.652938365936279 67.59860229492188 C 8.994815826416016 73.13550567626953 12.34803104400635 78.10878753662109 16.61946105957031 82.38029479980469 C 20.89090728759766 86.65180206298828 25.86410713195801 90.00508880615234 31.40093803405762 92.34700012207031 C 37.13178634643555 94.77096557617188 43.22119903564453 96.00003051757812 49.50004577636719 96.00003051757812 M 49.50004577636719 99.00003051757812 C 22.16164588928223 99.00003051757812 0 76.83772277832031 0 49.49943161010742 C 0 22.1617374420166 22.16164588928223 6.116097938502207e-05 49.50004577636719 6.116097938502207e-05 C 76.83778381347656 6.116097938502207e-05 99 22.1617374420166 99 49.49943161010742 C 99 76.83772277832031 76.83778381347656 99.00003051757812 49.50004577636719 99.00003051757812 Z"/>
      </g>
    </g>
    <g id="Grupo_4617" data-name="Grupo 4617" transform="translate(494.334 887.814)">
      <g id="Grupo_702" data-name="Grupo 702" transform="translate(9.672 0)">
        <path id="Trazado_1291" data-name="Trazado 1291" class="cls-4" d="M1.608,19.452,0,19.186,3.172,0,4.78.265,1.608,19.452Z" transform="translate(0 0)"/>
      </g>
      <g id="Grupo_703" data-name="Grupo 703" transform="translate(0 0)">
        <path id="Trazado_1292" data-name="Trazado 1292" class="cls-4" d="M3.169,19.452,0,.265,1.606,0,4.778,19.186l-1.608.266Z" transform="translate(0 0)"/>
      </g>
    </g>
    <g id="Grupo_4618" data-name="Grupo 4618" transform="translate(495.547 887.916)">
      <path id="Trazado_1293" data-name="Trazado 1293" class="cls-4" d="M12.328,2.6c-.667,0-.958-.65-1.168-1.125-.088-.2-.27-.606-.376-.606s-.283.41-.371.606C10.2,1.949,9.91,2.6,9.247,2.6s-.956-.65-1.166-1.125c-.088-.2-.269-.606-.371-.606s-.288.41-.374.606c-.213.476-.5,1.125-1.17,1.125S5.214,1.949,5,1.474c-.086-.2-.266-.606-.37-.606s-.287.41-.378.606c-.208.476-.5,1.125-1.165,1.125S2.13,1.949,1.92,1.474c-.091-.2-.275-.606-.379-.606s-.287.41-.373.606C.956,1.949.668,2.6,0,2.6V1.732c.1,0,.288-.412.372-.607C.586.647.877,0,1.542,0S2.5.647,2.71,1.125c.09.195.27.607.374.607s.287-.412.378-.607C3.67.65,3.96,0,4.628,0s.954.65,1.166,1.125c.086.195.27.607.371.607s.288-.412.378-.607C6.754.65,7.037,0,7.709,0s.953.65,1.159,1.125c.093.195.275.607.379.607s.285-.412.373-.607C9.829.647,10.117,0,10.784,0s.956.65,1.166,1.125c.09.195.27.607.378.607V2.6Z" transform="translate(0 0)"/>
    </g>
    <path id="Trazado_4061" data-name="Trazado 4061" class="cls-4" d="M1.065,13.295A1.066,1.066,0,0,1,0,12.231V1.064a1.065,1.065,0,0,1,2.13,0V12.231A1.063,1.063,0,0,1,1.065,13.295Z" transform="translate(500.484 842.611)"/>
    <path id="Trazado_4062" data-name="Trazado 4062" class="cls-4" d="M1.064,11.8a1.039,1.039,0,0,1-.53-.143A1.058,1.058,0,0,1,.145,10.2L5.726.532A1.063,1.063,0,0,1,7.566,1.6L1.987,11.268A1.07,1.07,0,0,1,1.064,11.8Z" transform="translate(513.239 847.515)"/>
    <path id="Trazado_4057" data-name="Trazado 4057" class="cls-4" d="M1.064,7.711a1.063,1.063,0,0,1-.53-1.985L10.2.141a1.065,1.065,0,0,1,1.065,1.845L1.6,7.569A1.051,1.051,0,0,1,1.064,7.711Z" transform="translate(522.581 860.937)"/>
    <path id="Trazado_4058" data-name="Trazado 4058" class="cls-4" d="M12.588,2.13H1.065a1.065,1.065,0,1,1,0-2.13H12.588a1.065,1.065,0,0,1,0,2.13Z" transform="translate(526.003 879.278)"/>
    <path id="Trazado_4052" data-name="Trazado 4052" class="cls-4" d="M10.737,7.712a1.068,1.068,0,0,1-.533-.144L.533,1.988A1.065,1.065,0,0,1,1.6.143l9.676,5.581a1.066,1.066,0,0,1-.535,1.988Z" transform="translate(522.588 892.037)"/>
    <path id="Trazado_4063" data-name="Trazado 4063" class="cls-4" d="M6.645,11.8a1.063,1.063,0,0,1-.921-.533L.142,1.6A1.066,1.066,0,0,1,1.988.532L7.567,10.2a1.062,1.062,0,0,1-.922,1.6Z" transform="translate(482.147 847.521)"/>
    <path id="Trazado_4059" data-name="Trazado 4059" class="cls-4" d="M10.736,7.709a1.046,1.046,0,0,1-.533-.142L.529,1.984A1.064,1.064,0,1,1,1.6.143l9.674,5.581a1.064,1.064,0,0,1-.535,1.985Z" transform="translate(468.725 860.948)"/>
    <path id="Trazado_4060" data-name="Trazado 4060" class="cls-4" d="M12.227,2.128H1.065A1.064,1.064,0,1,1,1.065,0H12.227a1.064,1.064,0,1,1,0,2.128Z" transform="translate(463.818 879.28)"/>
    <path id="Trazado_4053" data-name="Trazado 4053" class="cls-4" d="M1.064,7.714A1.066,1.066,0,0,1,.531,5.727L10.2.142A1.065,1.065,0,0,1,11.27,1.985L1.594,7.572A1.065,1.065,0,0,1,1.064,7.714Z" transform="translate(468.735 892.039)"/>
    <g id="Grupo_4619" data-name="Grupo 4619" transform="translate(481.225 859.115)">
      <path id="Trazado_1303" data-name="Trazado 1303" class="cls-5" d="M29.771,48.476H10.855A1.777,1.777,0,0,1,9.079,46.7a2.02,2.02,0,0,1,.018-.233C9.2,45.2,9.09,41.318,7.79,39.588.213,29.829,0,20.426,0,20.334a20.332,20.332,0,1,1,40.664,0c0,.091-.208,9.493-7.8,19.276-1.351,1.786-1.406,5.672-1.34,6.788a2.119,2.119,0,0,1,.023.3A1.774,1.774,0,0,1,29.771,48.476Zm-18.916-3.55A1.764,1.764,0,0,0,9.1,46.434,1.773,1.773,0,0,1,10.855,44.927Zm19.212.025a1.806,1.806,0,0,1,.685.271A1.784,1.784,0,0,0,30.067,44.951ZM12.66,44.927H27.975c.03-.8.1-1.475.1-1.492a11.9,11.9,0,0,1,1.964-5.982c6.827-8.784,7.078-17.04,7.078-17.121a16.784,16.784,0,1,0-33.567,0c0,.079.251,8.329,7.063,17.1a11.821,11.821,0,0,1,1.956,6.008C12.568,43.457,12.628,44.128,12.66,44.927Z" transform="translate(0 0)"/>
    </g>
    <g id="Grupo_4620" data-name="Grupo 4620" transform="translate(490.948 908.85)">
      <path id="Trazado_1304" data-name="Trazado 1304" class="cls-5" d="M19.44,3.549H1.776A1.774,1.774,0,1,1,1.776,0H19.44a1.774,1.774,0,1,1,0,3.549Z" transform="translate(0 0)"/>
    </g>
    <g id="Grupo_4612" data-name="Grupo 4612" transform="translate(492.255 913.632)">
      <path id="Trazado_1305" data-name="Trazado 1305" class="cls-5" d="M16.825,3.55H1.776a1.775,1.775,0,1,1,0-3.55H16.825a1.775,1.775,0,0,1,0,3.55Z" transform="translate(0 0)"/>
    </g>
    <g id="Grupo_4613" data-name="Grupo 4613" transform="translate(494.467 916.316)">
      <path id="Trazado_1306" data-name="Trazado 1306" class="cls-5" d="M12.4,3.549H1.773A1.774,1.774,0,0,1,1.773,0H12.4a1.774,1.774,0,1,1,0,3.549Z" transform="translate(0 2)"/>
    </g>
  </g>
</svg>
