<svg xmlns="http://www.w3.org/2000/svg" width="99" height="99" viewBox="0 0 99 99">
  <defs>
    <style>
      .cls-1 {
        fill: #f15d3a;
      }

      .cls-2, .cls-3 {
        fill: none;
      }

      .cls-2 {
        stroke-miterlimit: 10;
      }

      .cls-3, .cls-4 {
        stroke: #fff;
        stroke-width: 3px;
      }

      .cls-4 {
        fill: #f04a23;
      }

      .cls-5, .cls-6 {
        stroke: none;
      }

      .cls-6 {
        fill: #fff;
      }
    </style>
  </defs>
  <g id="Grupo_9958" data-name="Grupo 9958" transform="translate(-1206.67 -739)">
    <path id="Trazado_3947" data-name="Trazado 3947" class="cls-1" d="M49.5,99A49.5,49.5,0,1,1,99,49.5,49.5,49.5,0,0,1,49.5,99Z" transform="translate(1206.67 739)"/>
    <g id="Trazado_3948" data-name="Trazado 3948" class="cls-2" transform="translate(1683.681 666.316)">
      <path class="cls-5" d="M-427.336,88.787l28.7,16.6a.3.3,0,0,1,.151.261l-.025,33.151a.3.3,0,0,1-.151.26l-28.722,16.555a.3.3,0,0,1-.3,0l-28.7-16.6a.3.3,0,0,1-.151-.261l.025-33.151a.3.3,0,0,1,.15-.261s21.428-12.461,28.581-16.6A.636.636,0,0,1-427.336,88.787Z"/>
      <path class="cls-6" d="M -427.595703125 92.10295104980469 C -434.4175415039062 96.05514526367188 -449.0218200683594 104.5454864501953 -453.5101928710938 107.1552124023438 L -453.5330200195312 137.1969909667969 L -427.5337219238281 152.2334594726562 L -401.511962890625 137.2350769042969 L -401.4891967773438 107.2015380859375 L -427.595703125 92.10295104980469 M -427.6515808105469 88.71778869628906 C -427.53955078125 88.71778869628906 -427.3992004394531 88.7510986328125 -427.3363647460938 88.787353515625 L -398.6387634277344 105.3844909667969 C -398.5457458496094 105.4386291503906 -398.488037109375 105.5382385253906 -398.488037109375 105.6454162597656 L -398.5131530761719 138.7962341308594 C -398.5131530761719 138.9034729003906 -398.5702514648438 139.0030822753906 -398.6638793945312 139.05615234375 L -427.3862609863281 155.6111145019531 C -427.4792785644531 155.6640319824219 -427.5928039550781 155.6640319824219 -427.6857604980469 155.6111145019531 L -456.3836669921875 139.0139465332031 C -456.4767150878906 138.9597473144531 -456.5342102050781 138.8601379394531 -456.5342102050781 138.7529907226562 L -456.5090026855469 105.6020660400391 C -456.5090026855469 105.4949035644531 -456.4516296386719 105.3953552246094 -456.3585510253906 105.3411560058594 C -456.3585510253906 105.3411560058594 -434.930419921875 92.88005065917969 -427.7779235839844 88.74189758300781 C -427.7486877441406 88.72483825683594 -427.703125 88.71778869628906 -427.6515808105469 88.71778869628906 Z"/>
    </g>
    <path id="Trazado_3949" data-name="Trazado 3949" class="cls-3" d="M-8778.508,1851.208l28.128,16.248,28.011-16.248" transform="translate(10006.676 -1079.016)"/>
    <path id="Trazado_3950" data-name="Trazado 3950" class="cls-4" d="M-8744.014,1871.092v32.024" transform="translate(10000.184 -1082.65)"/>
  </g>
</svg>
