<svg id="Grupo_4318" data-name="Grupo 4318" xmlns="http://www.w3.org/2000/svg" width="560.344" height="560.348" viewBox="0 0 560.344 560.348">
  <defs>
    <style>
      .cls-1, .cls-2 {
        fill: #fff;
      }

      .cls-1 {
        stroke: #fff;
        stroke-miterlimit: 10;
        stroke-width: 0.25px;
      }
    </style>
  </defs>
  <path id="Trazado_929" data-name="Trazado 929" class="cls-1" d="M-211.267,142.648" transform="translate(527.963 197.758)"/>
  <path id="Trazado_930" data-name="Trazado 930" class="cls-1" d="M-229.767,107.3" transform="translate(485.7 117.014)"/>
  <path id="Sustracción_98" data-name="Sustracción 98" class="cls-2" d="M280.176,560.347a282.31,282.31,0,0,1-56.464-5.692A278.669,278.669,0,0,1,123.524,512.5,281,281,0,0,1,22.016,389.233,278.638,278.638,0,0,1,5.693,336.642a282.855,282.855,0,0,1,0-112.929A278.548,278.548,0,0,1,47.848,123.528,280.953,280.953,0,0,1,171.121,22.017a278.712,278.712,0,0,1,52.59-16.324,282.855,282.855,0,0,1,112.929,0A278.646,278.646,0,0,1,436.822,47.85,280.98,280.98,0,0,1,538.329,171.12a278.852,278.852,0,0,1,16.325,52.593,282.978,282.978,0,0,1,0,112.929A278.655,278.655,0,0,1,512.5,436.824,280.991,280.991,0,0,1,389.228,538.331a278.729,278.729,0,0,1-52.588,16.324A282.271,282.271,0,0,1,280.176,560.347Zm-3.12-478.383a73.1,73.1,0,0,0-37.242,10.3C195.661,118.014,129.3,156.35,128.808,156.637c-10.6,7.419-18.691,14.128-23.775,22.759-4.911,8.336-6.937,18.436-6.572,32.747l-.228,135.422c-.238,11.457,1.708,21.158,5.952,29.656,3.49,6.989,8.639,13.264,15.742,19.181,2.187,1.823,12.011,7.73,13.856,8.817l108.254,64.445a68.74,68.74,0,0,0,18.033,7.5,78.883,78.883,0,0,0,39.408,0,68.72,68.72,0,0,0,18.041-7.5L434.91,401.034c9.958-5.534,16.571-10.85,20.816-16.727,4.574-6.336,6.7-13.644,6.7-23l.231-148.472c-.311-14.936-2.412-24.786-7.03-32.935-5.071-8.948-13.4-16.2-26.994-23.529L321.953,94.476C306.537,86.174,291.433,81.964,277.056,81.964Z" transform="translate(0 0)"/>
  <path id="Trazado_932" data-name="Trazado 932" class="cls-2" d="M-149.507,88.125l102.527,59.3a1.07,1.07,0,0,1,.535.93l-.089,118.436a1.074,1.074,0,0,1-.539.93l-102.613,59.142a1.08,1.08,0,0,1-1.074,0l-102.527-59.3a1.071,1.071,0,0,1-.535-.93l.089-118.436a1.073,1.073,0,0,1,.539-.929s76.556-44.524,102.107-59.307A2.289,2.289,0,0,1-149.507,88.125Z" transform="translate(430.756 72.648)"/>
</svg>
