<svg xmlns="http://www.w3.org/2000/svg" width="170.682" height="34.45" viewBox="0 0 170.682 34.45">
  <g id="Grupo_10740" data-name="Grupo 10740" transform="translate(-290.63 -27.775)">
    <path id="Trazado_3595" data-name="Trazado 3595" d="M1034.016,758.046H1027v-1.781h7.016c6.138,0,11.132-4.586,11.132-10.223s-4.994-10.222-11.132-10.222l-7.012-.034.009-1.781,7.008.034c7.2,0,13.067,5.385,13.067,12S1041.223,758.046,1034.016,758.046Z" transform="translate(-673.936 -700.992)" fill="#fff"/>
    <path id="Trazado_3596" data-name="Trazado 3596" d="M1033.986,736.384h-7.08v-1.827l7.08,0c9,0,16.318-6.892,16.318-15.363s-7.321-15.363-16.318-15.363h-7.1V702h7.1c10.07,0,18.262,7.712,18.262,17.192S1044.056,736.384,1033.986,736.384Z" transform="translate(-673.842 -674.159)" fill="#fff"/>
    <path id="Trazado_3597" data-name="Trazado 3597" d="M827.107,758.086H817v-1.781h10.107a17.1,17.1,0,0,0,3.813-.211,6.431,6.431,0,0,0,3.558-2.75,5.369,5.369,0,0,0,.3-5.139l-.02-.045A5.989,5.989,0,0,0,831.2,745.2a10.46,10.46,0,0,0-3.107-.489,3.73,3.73,0,0,1-3.51-2.59,2.75,2.75,0,0,1,.531-2.413c.193-.218.455-.517.757-.861.868-.992,1.971-2.1,2.815-3.009H817v-1.781h12.892a1.4,1.4,0,0,1,1.441.707c.128.273.24.828-.449,1.486-.744.711-2.4,2.458-3.5,3.712-.3.348-.569.65-.764.87a1.121,1.121,0,0,0-.151.864,1.819,1.819,0,0,0,1.627,1.233,12.478,12.478,0,0,1,3.79.6,7.88,7.88,0,0,1,4.681,3.985l0,.007a7.014,7.014,0,0,1-.417,6.724,8.29,8.29,0,0,1-4.667,3.554A17.736,17.736,0,0,1,827.107,758.086Z" transform="translate(-494.957 -701.033)" fill="#fff"/>
    <path id="Trazado_3598" data-name="Trazado 3598" d="M829.591,736.04H816.986v-1.826h12.605a11.138,11.138,0,0,0,7.458-3.083,10.1,10.1,0,0,0,3.369-7.264c0-5.184-2.616-8.736-7.774-10.557l-1.2-.424,4.8-6.145a2.091,2.091,0,0,0,.1-2.245,2,2,0,0,0-1.79-1.081l-17.565.045-.006-1.826,17.568-.045a3.93,3.93,0,0,1,3.523,2.083,3.811,3.811,0,0,1-.268,4.15L834.5,712.06c3.824,1.652,7.86,5.007,7.86,11.808a11.885,11.885,0,0,1-3.944,8.56A13.15,13.15,0,0,1,829.591,736.04Z" transform="translate(-495.135 -673.815)" fill="#fff"/>
    <path id="Trazado_3599" data-name="Trazado 3599" d="M607,702.169v1.489a.174.174,0,0,0,.179.168h9.032s.323-.009,1.131,0a12.04,12.04,0,0,1,3.878.761c2.715.993,7.434,4.244,7.434,10.346,0,7.455-7.11,10.345-8.811,10.605a.127.127,0,0,0-.073.214s0-.018,10.5,10.631h2.1l-9.7-9.889s7.919-3.195,7.919-11.715S622.675,702,617.666,702H607.179A.174.174,0,0,0,607,702.169Z" transform="translate(-316.359 -674.159)" fill="#fff"/>
    <path id="Trazado_3600" data-name="Trazado 3600" d="M606.937,734.005v1.807h9.545c2.1,0,6.869,1.2,6.869,6.325,0,3.463-3.394,6.174-7.073,6.023-2.465-.1-3.754,1.506-3.878,2.861s.429,2.156,1.778,3.463c9.023,8.745,9.039,8.734,9.039,8.734h2.263s-.018.009-10.369-10.239a1.743,1.743,0,0,1-.485-2.409,1.71,1.71,0,0,1,1.293-.6,8.941,8.941,0,0,0,4.886-1.054,8.052,8.052,0,0,0,4.363-6.776c0-3.915-3.028-8.132-8.9-8.131Z" transform="translate(-316.307 -700.992)" fill="#fff"/>
    <path id="Trazado_8490" data-name="Trazado 8490" d="M1.41-.983a1.382,1.382,0,0,1,.283-.942,1.026,1.026,0,0,1,.812-.32,1.1,1.1,0,0,1,.84.32,1.325,1.325,0,0,1,.3.942,1.3,1.3,0,0,1-.306.928A1.092,1.092,0,0,1,2.5.269a1.1,1.1,0,0,1-.784-.292A1.27,1.27,0,0,1,1.41-.983ZM11.379.186A4.34,4.34,0,0,1,7.961-1.174,5.589,5.589,0,0,1,6.75-5.019,5.763,5.763,0,0,1,7.979-8.962a4.426,4.426,0,0,1,3.5-1.392,6.95,6.95,0,0,1,1.466.158,4.829,4.829,0,0,1,1.15.371l-.473,1.308a7.241,7.241,0,0,0-1.113-.339,4.971,4.971,0,0,0-1.067-.135q-3.1,0-3.1,3.952A4.706,4.706,0,0,0,9.1-2.162a2.631,2.631,0,0,0,2.24,1,6.85,6.85,0,0,0,2.607-.547V-.343A5.556,5.556,0,0,1,11.379.186ZM25.765-5.093a5.609,5.609,0,0,1-1.252,3.883,4.411,4.411,0,0,1-3.46,1.4,4.583,4.583,0,0,1-2.421-.64A4.225,4.225,0,0,1,17-2.292a6.4,6.4,0,0,1-.575-2.8,5.6,5.6,0,0,1,1.243-3.873,4.4,4.4,0,0,1,3.451-1.387,4.3,4.3,0,0,1,3.391,1.419A5.585,5.585,0,0,1,25.765-5.093Zm-7.747,0A4.826,4.826,0,0,0,18.8-2.125,2.705,2.705,0,0,0,21.089-1.1a2.723,2.723,0,0,0,2.3-1.016,4.8,4.8,0,0,0,.784-2.973,4.724,4.724,0,0,0-.784-2.946A2.754,2.754,0,0,0,21.07-9.045a2.711,2.711,0,0,0-2.282.993A4.777,4.777,0,0,0,18.018-5.093ZM42.052,0V-6.615a2.746,2.746,0,0,0-.52-1.823,2.01,2.01,0,0,0-1.614-.608,2.606,2.606,0,0,0-2.125.826,3.924,3.924,0,0,0-.687,2.542V0h-1.54V-6.615a2.746,2.746,0,0,0-.52-1.823,2.022,2.022,0,0,0-1.624-.608,2.515,2.515,0,0,0-2.12.867,4.7,4.7,0,0,0-.673,2.844V0h-1.54V-10.168h1.252l.25,1.392h.074A3.027,3.027,0,0,1,31.9-9.936a3.755,3.755,0,0,1,1.777-.417,3.021,3.021,0,0,1,3.117,1.726h.074A3.242,3.242,0,0,1,38.183-9.89a4.088,4.088,0,0,1,1.967-.464,3.443,3.443,0,0,1,2.584.886,3.964,3.964,0,0,1,.858,2.834V0Zm5.117-.983a1.382,1.382,0,0,1,.283-.942,1.026,1.026,0,0,1,.812-.32,1.1,1.1,0,0,1,.84.32,1.325,1.325,0,0,1,.3.942,1.3,1.3,0,0,1-.306.928,1.092,1.092,0,0,1-.835.325,1.1,1.1,0,0,1-.784-.292A1.27,1.27,0,0,1,47.169-.983ZM66.035,0V-6.615a2.746,2.746,0,0,0-.52-1.823A2.01,2.01,0,0,0,63.9-9.045a2.606,2.606,0,0,0-2.125.826,3.924,3.924,0,0,0-.687,2.542V0h-1.54V-6.615a2.746,2.746,0,0,0-.52-1.823,2.022,2.022,0,0,0-1.624-.608,2.515,2.515,0,0,0-2.12.867,4.7,4.7,0,0,0-.673,2.844V0h-1.54V-10.168h1.252l.25,1.392h.074a3.027,3.027,0,0,1,1.229-1.16,3.755,3.755,0,0,1,1.777-.417,3.021,3.021,0,0,1,3.117,1.726h.074A3.242,3.242,0,0,1,62.167-9.89a4.088,4.088,0,0,1,1.967-.464,3.443,3.443,0,0,1,2.584.886,3.964,3.964,0,0,1,.858,2.834V0Zm7.789-5.2L70.29-10.168h1.753l2.681,3.9,2.672-3.9h1.735L75.6-5.2,79.317,0H77.573L74.724-4.119,71.848,0H70.1Z" transform="translate(381.996 61.956)" fill="#fff"/>
  </g>
</svg>
