<svg xmlns="http://www.w3.org/2000/svg" width="90" height="90" viewBox="0 0 90 90">
  <defs>
    <style>
      .cls-1 {
        fill: #f15d3a;
      }
    </style>
  </defs>
  <path id="Sustracción_141" data-name="Sustracción 141" class="cls-1" d="M45,90a44.79,44.79,0,0,1-25.16-7.685,45.132,45.132,0,0,1-16.3-19.8A44.941,44.941,0,0,1,7.685,19.84a45.131,45.131,0,0,1,19.8-16.3A44.941,44.941,0,0,1,70.16,7.685a45.131,45.131,0,0,1,16.3,19.8A44.941,44.941,0,0,1,82.315,70.16a45.131,45.131,0,0,1-19.8,16.3A44.719,44.719,0,0,1,45,90Zm-.5-76.836a11.74,11.74,0,0,0-5.981,1.653c-5.983,3.49-14.338,8.323-17.653,10.239l-.176.1c-3.535,2.475-4.993,4.26-4.874,8.914l-.037,21.751a9.98,9.98,0,0,0,.956,4.764,9.59,9.59,0,0,0,2.529,3.081c.327.272,1.766,1.145,2.225,1.415L38.874,75.435a12.251,12.251,0,0,0,12.124,0L69.853,64.411A9.9,9.9,0,0,0,73.2,61.725a6.014,6.014,0,0,0,1.077-3.695l.037-23.847a10.789,10.789,0,0,0-1.13-5.29,10.136,10.136,0,0,0-4.336-3.778L51.71,15.174A15.266,15.266,0,0,0,44.5,13.164Zm.56,51.026a.174.174,0,0,1-.086-.023L28.5,54.643a.174.174,0,0,1-.086-.149l.014-19.023a.172.172,0,0,1,.087-.149c.061-.036,12.224-7.11,16.4-9.526a.156.156,0,0,1,.073-.014.441.441,0,0,1,.181.04L61.64,35.346a.171.171,0,0,1,.086.149l-.014,19.023a.172.172,0,0,1-.086.149l-16.481,9.5A.181.181,0,0,1,45.058,64.19Z"/>
</svg>
