<svg id="Grupo_4624" data-name="Grupo 4624" xmlns="http://www.w3.org/2000/svg" width="90" height="90" viewBox="0 0 90 90">
  <defs>
    <style>
      .cls-1 {
        fill: #f15d3a;
      }
    </style>
  </defs>
  <path id="Sustracción_117" data-name="Sustracción 117" class="cls-1" d="M52.69,90h0V58.151a6.071,6.071,0,0,0-.124-1.213,20.811,20.811,0,0,0,9.474-7.293A19.531,19.531,0,0,0,65.73,38.211a20.161,20.161,0,0,0-12.6-18.5v18.5H36.458v-18.5a20.161,20.161,0,0,0-12.6,18.5,19.533,19.533,0,0,0,3.689,11.434,20.81,20.81,0,0,0,9.474,7.293,6.5,6.5,0,0,0-.123,1.213l.036,31.783A44.4,44.4,0,0,1,22.3,84.481a45.5,45.5,0,0,1-9.124-71.2A44.936,44.936,0,0,1,86.464,27.685,45.467,45.467,0,0,1,67.45,84.624,44.391,44.391,0,0,1,52.691,90Z"/>
</svg>
