<svg xmlns="http://www.w3.org/2000/svg" width="47" height="47.001" viewBox="0 0 47 47.001">
  <g id="Grupo_11222" data-name="Grupo 11222" transform="translate(-1461 -21)">
    <path id="Sustracción_144" data-name="Sustracción 144" d="M23.5,47A23.507,23.507,0,0,1,14.353,1.847,23.506,23.506,0,0,1,32.647,45.154,23.352,23.352,0,0,1,23.5,47Zm-2.407-7.932a.779.779,0,0,0,0,1.557h4.661a.779.779,0,1,0,0-1.557Zm-.968-1.988a.779.779,0,1,0,0,1.557h6.6a.779.779,0,0,0,0-1.557Zm-.574-1.988a.778.778,0,1,0,0,1.556H27.3a.778.778,0,1,0,0-1.556ZM23.424,13.4a8.927,8.927,0,0,0-8.916,8.917,15.586,15.586,0,0,0,3.416,8.444,5.663,5.663,0,0,1,.572,3.017.945.945,0,0,0-.007.1.779.779,0,0,0,.779.779H27.56a.781.781,0,0,0,.781-.779.928.928,0,0,0-.01-.132,5.819,5.819,0,0,1,.588-2.976,15.6,15.6,0,0,0,3.422-8.454A8.927,8.927,0,0,0,23.424,13.4ZM13.846,27.9a.465.465,0,0,0-.231.062L9.372,30.411a.468.468,0,0,0,.233.872.47.47,0,0,0,.233-.063l4.244-2.449a.467.467,0,0,0-.236-.871ZM33,27.9a.467.467,0,0,0-.234.872l4.242,2.447a.467.467,0,0,0,.468-.809l-4.244-2.447A.462.462,0,0,0,33,27.9ZM7.451,22.357a.467.467,0,1,0,0,.933h4.9a.467.467,0,1,0,0-.933Zm27.049,0a.467.467,0,1,0,0,.933h5.053a.467.467,0,0,0,0-.933ZM9.6,14.368a.467.467,0,0,0-.236.87l4.243,2.448a.457.457,0,0,0,.234.062.466.466,0,0,0,.234-.87L9.836,14.431A.465.465,0,0,0,9.6,14.368Zm27.636-.009a.466.466,0,0,0-.232.062L32.766,16.87a.466.466,0,0,0,.233.87.459.459,0,0,0,.234-.062l4.241-2.448a.467.467,0,0,0-.235-.871Zm-21.81-5.82A.464.464,0,0,0,15.2,8.6a.47.47,0,0,0-.171.638l2.448,4.24a.469.469,0,0,0,.639.171.46.46,0,0,0,.216-.281.466.466,0,0,0-.047-.356L15.835,8.772A.473.473,0,0,0,15.428,8.539Zm15.984,0a.468.468,0,0,0-.4.233L28.561,13.01a.463.463,0,0,0,.171.636.451.451,0,0,0,.232.063.47.47,0,0,0,.405-.234l2.446-4.241a.459.459,0,0,0,.049-.352.47.47,0,0,0-.452-.348ZM23.42,6.375a.468.468,0,0,0-.467.467v4.9a.467.467,0,0,0,.934,0v-4.9A.468.468,0,0,0,23.42,6.375Z" transform="translate(1460.999 21)" fill="#f04a23"/>
  </g>
</svg>
