<svg id="accepted-rejected" enable-background="new 0 0 300 300" height="512" viewBox="0 0 300 300" width="512" xmlns="http://www.w3.org/2000/svg" xmlns:xlink="http://www.w3.org/1999/xlink"><linearGradient id="SVGID_1_" gradientUnits="userSpaceOnUse" x1="35.652" x2="236.567" y1="250.649" y2="49.733"><stop offset="0" stop-color="#107eff"/><stop offset="1" stop-color="#8f16ff"/></linearGradient><g><path d="m208 161.34v-4h-4c-2.211 0-4-1.791-4-4s1.789-4 4-4h4v-4c0-2.209 1.789-4 4-4s4 1.791 4 4v4h4c2.211 0 4 1.791 4 4s-1.789 4-4 4h-4v4c0 2.209-1.789 4-4 4s-4-1.791-4-4zm35.447-22.403c0 2.362 1.915 4.276 4.277 4.276s4.276-1.915 4.276-4.276-1.915-4.277-4.276-4.277-4.277 1.915-4.277 4.277zm-11.723-83.724c2.362 0 4.276-1.915 4.276-4.276s-1.915-4.277-4.276-4.277-4.277 1.915-4.277 4.277 1.915 4.276 4.277 4.276zm-51.724-1.873v88c0 2.209-1.789 4-4 4h-136c-2.211 0-4-1.791-4-4v-88c0-2.209 1.789-4 4-4h136c2.211 0 4 1.791 4 4zm-13.656 4h-116.688l8 8h100.688zm-106.344 16v48h96v-48zm-10.344 64h116.688l-8-8h-100.688zm130.344 24v88c0 2.209-1.789 4-4 4h-136c-2.211 0-4-1.791-4-4v-88c0-2.209 1.789-4 4-4h136c2.211 0 4 1.791 4 4zm-13.656 4h-116.688l8 8h100.688zm-106.344 16v48h96v-48zm-16-10.344v68.688l8-8v-52.688zm5.656 74.344h116.688l-8-8h-100.688zm122.344-5.657v-68.688l-8 8v52.688zm59.781-131.015c.664.441 1.434.672 2.219.672.281 0 .562-.029.844-.09 1.055-.227 1.977-.873 2.547-1.791l10-16c1.172-1.873.602-4.34-1.27-5.512-1.879-1.172-4.344-.6-5.512 1.273l-7.816 12.506-2.574-1.715c-1.848-1.229-4.324-.73-5.547 1.109-1.227 1.838-.73 4.322 1.109 5.547zm32.219 100.672c0 15.439-12.562 28-28 28-14.076 0-25.729-10.454-27.68-24h-16.32c-2.211 0-4-1.791-4-4s1.789-4 4-4h16.32c1.951-13.546 13.604-24 27.68-24 15.438 0 28 12.56 28 28zm-8 0c0-11.027-8.973-20-20-20s-20 8.973-20 20 8.973 20 20 20 20-8.973 20-20zm-9.172-10.829c-1.562-1.562-4.094-1.562-5.656 0l-5.172 5.172-5.172-5.172c-1.562-1.562-4.094-1.562-5.656 0s-1.562 4.094 0 5.656l5.172 5.172-5.172 5.172c-1.562 1.562-1.562 4.094 0 5.656.781.781 1.805 1.172 2.828 1.172s2.047-.391 2.828-1.172l5.172-5.172 5.172 5.172c.781.781 1.805 1.172 2.828 1.172s2.047-.391 2.828-1.172c1.562-1.562 1.562-4.094 0-5.656l-5.172-5.172 5.172-5.172c1.563-1.562 1.563-4.093 0-5.656zm-58.828-101.171c0-2.209 1.789-4 4-4h16.32c1.951-13.546 13.604-24 27.68-24 15.438 0 28 12.561 28 28s-12.562 28-28 28c-14.076 0-25.729-10.454-27.68-24h-16.32c-2.211 0-4-1.791-4-4zm28 0c0 11.027 8.973 20 20 20s20-8.973 20-20-8.973-20-20-20-20 8.972-20 20z" fill="url(#SVGID_1_)"/></g></svg>