<svg id="analyse" enable-background="new 0 0 300 300" height="512" viewBox="0 0 300 300" width="512" xmlns="http://www.w3.org/2000/svg" xmlns:xlink="http://www.w3.org/1999/xlink"><linearGradient id="SVGID_1_" gradientUnits="userSpaceOnUse" x1="59.978" x2="253.828" y1="251.062" y2="57.211"><stop offset="0" stop-color="#107eff"/><stop offset="1" stop-color="#8f16ff"/></linearGradient><g><path d="m266 216h-12v-44c0-2.209-1.789-4-4-4h-48c-2.211 0-4 1.791-4 4s1.789 4 4 4h28v32h-12c-2.211 0-4 1.791-4 4v36c0 2.209 1.789 4 4 4h48c2.211 0 4-1.791 4-4v-28c0-2.209-1.789-4-4-4zm-44 0h8v28h-8zm16-4v-36h4 4v44 24h-8zm-24-108h52c2.211 0 4 1.791 4 4s-1.789 4-4 4h-50.344l-26.828 26.828c-.781.781-1.805 1.172-2.828 1.172s-2.047-.391-2.828-1.172c-1.562-1.562-1.562-4.094 0-5.656l28-28c.75-.75 1.766-1.172 2.828-1.172zm0-4c-2.211 0-4-1.791-4-4s1.789-4 4-4h40c2.211 0 4 1.791 4 4s-1.789 4-4 4zm-96-40c0-2.209 1.789-4 4-4h20c1.602 0 3.047.953 3.676 2.424l24 56c.871 2.031-.07 4.383-2.102 5.252-.512.221-1.047.326-1.574.326-1.551 0-3.027-.91-3.676-2.426l-22.961-53.576h-17.363c-2.211 0-4-1.791-4-4zm51.516 6.828 2.828-2.828-2.828-2.828c-1.562-1.562-1.562-4.094 0-5.656s4.094-1.562 5.656 0l2.828 2.828 2.828-2.828c1.562-1.562 4.094-1.562 5.656 0s1.562 4.094 0 5.656l-2.828 2.828 2.828 2.828c1.562 1.562 1.562 4.094 0 5.656-.781.781-1.805 1.172-2.828 1.172s-2.047-.391-2.828-1.172l-2.828-2.828-2.828 2.828c-.781.781-1.805 1.172-2.828 1.172s-2.047-.391-2.828-1.172c-1.563-1.562-1.563-4.093 0-5.656zm72.484 65.172c2.209 0 4 1.791 4 4s-1.791 4-4 4-4-1.791-4-4 1.791-4 4-4zm-160-44c15.438 0 28-12.561 28-28s-12.562-28-28-28-28 12.561-28 28 12.562 28 28 28zm0-48c1.385 0 2.736.143 4.042.412l-7.718 18.011c-.531 1.236-.402 2.656.336 3.777.742 1.124 1.996 1.8 3.34 1.8h19.596c-1.859 9.117-9.938 16-19.596 16-11.027 0-20-8.973-20-20s8.973-20 20-20zm28 68c-44.113 0-80 35.889-80 80s35.887 80 80 80 80-35.889 80-80-35.887-80-80-80zm0 152c-39.699 0-72-32.299-72-72s32.301-72 72-72 72 32.299 72 72-32.301 72-72 72zm0-128c-30.879 0-56 25.121-56 56s25.121 56 56 56 56-25.121 56-56-25.121-56-56-56zm0 104c-26.469 0-48-21.533-48-48s21.531-48 48-48 48 21.533 48 48-21.531 48-48 48zm0-56v4h8c2.211 0 4 1.791 4 4s-1.789 4-4 4h-8v8c0 2.209-1.789 4-4 4s-4-1.791-4-4v-24c0-2.209 1.789-4 4-4h12c2.211 0 4 1.791 4 4s-1.789 4-4 4zm-12-4v24c0 2.209-1.789 4-4 4s-4-1.791-4-4v-6.344l-8-8v14.344c0 2.209-1.789 4-4 4s-4-1.791-4-4v-24c0-1.617.973-3.076 2.469-3.695 1.5-.613 3.219-.275 4.359.867l9.172 9.172v-6.344c0-2.209 1.789-4 4-4s4 1.791 4 4zm48-4c2.211 0 4 1.791 4 4s-1.789 4-4 4h-4v20c0 2.209-1.789 4-4 4s-4-1.791-4-4v-20h-4c-2.211 0-4-1.791-4-4s1.789-4 4-4zm-40-48c0-2.209 1.791-4 4-4s4 1.791 4 4-1.791 4-4 4-4-1.791-4-4zm8 128c0 2.209-1.791 4-4 4s-4-1.791-4-4 1.791-4 4-4 4 1.791 4 4zm56-64c0-2.209 1.791-4 4-4s4 1.791 4 4-1.791 4-4 4-4-1.791-4-4zm-120 0c0 2.209-1.791 4-4 4s-4-1.791-4-4 1.791-4 4-4 4 1.791 4 4zm108.083 42.426c1.562 1.562 1.562 4.095 0 5.657s-4.095 1.562-5.657 0-1.562-4.095 0-5.657c1.563-1.562 4.095-1.562 5.657 0zm-96.166-84.853c-1.562-1.562-1.562-4.095 0-5.657s4.095-1.562 5.657 0 1.562 4.095 0 5.657c-1.563 1.563-4.095 1.563-5.657 0zm90.51 0c-1.562-1.562-1.562-4.095 0-5.657s4.095-1.562 5.657 0 1.562 4.095 0 5.657c-1.563 1.563-4.095 1.563-5.657 0zm-84.854 84.853c1.562 1.562 1.562 4.095 0 5.657s-4.095 1.562-5.657 0-1.562-4.095 0-5.657c1.563-1.562 4.095-1.562 5.657 0zm150.427-146.426c4.802 0 9.065-2.169 12-5.529 2.935 3.359 7.198 5.529 12 5.529 8.824 0 16-7.178 16-16s-7.176-16-16-16c-4.802 0-9.065 2.169-12 5.529-2.935-3.36-7.198-5.529-12-5.529-8.824 0-16 7.178-16 16s7.176 16 16 16zm0-24c4.41 0 8 3.588 8 8s-3.59 8-8 8-8-3.588-8-8 3.59-8 8-8z" fill="url(#SVGID_1_)"/></g></svg>