<svg id="art" enable-background="new 0 0 300 300" height="512" viewBox="0 0 300 300" width="512" xmlns="http://www.w3.org/2000/svg" xmlns:xlink="http://www.w3.org/1999/xlink"><linearGradient id="SVGID_1_" gradientUnits="userSpaceOnUse" x1="50.171" x2="273.828" y1="285.829" y2="62.172"><stop offset="0" stop-color="#00e7df"/><stop offset="1" stop-color="#4d54fe"/></linearGradient><g><path d="m118 70c7.719 0 14-6.281 14-14s-6.281-14-14-14-14 6.281-14 14 6.281 14 14 14zm0-20c3.309 0 6 2.691 6 6s-2.691 6-6 6-6-2.691-6-6 2.691-6 6-6zm50 12c0-2.209 1.791-4 4-4s4 1.791 4 4-1.791 4-4 4-4-1.791-4-4zm96 200h-16v-72h4c2.211 0 4-1.791 4-4v-50c0-10.998-6.875-20.401-16.544-24.194 7.407-3.566 12.544-11.124 12.544-19.88v-9.926c0-11.027-8.973-20-20-20s-20 8.973-20 20v28c0 2.209 1.789 4 4 4h.208c-7.319 4.605-12.208 12.733-12.208 22v50c0 2.209 1.789 4 4 4h4.554l10.8 72h-43.354v-172c0-2.209-1.789-4-4-4h-124c-2.211 0-4 1.791-4 4v172h-12c-2.211 0-4 1.791-4 4s1.789 4 4 4h228c2.211 0 4-1.791 4-4s-1.789-4-4-4zm-44-180c0-6.617 5.383-12 12-12s12 5.383 12 12v9.926c0 7.76-6.312 14.074-14.074 14.074h-9.926zm-8 54c0-9.926 8.074-18 18-18s18 8.074 18 18v46h-8v-48c0-6.617-5.383-12-12-12s-12 5.383-12 12v48h-4zm20-2v60c0 2.205-1.793 4-4 4s-4-1.795-4-4v-60c0-2.205 1.793-4 4-4s4 1.795 4 4zm-9.134 70.802c1.562.746 3.29 1.198 5.134 1.198 6.617 0 12-5.383 12-12v68h-8.554zm-66.866-42.137c-4.5-4.784-10.112-8.456-16.402-10.757.48-3.537-.371-6.305-1.336-8.182-3.594-6.996-12.305-9.359-13.289-9.605-1.207-.311-2.492-.025-3.465.75s-1.531 1.961-1.508 3.207l.108 5.524c-1.369-1.872-3.361-3.701-6.319-5.18-1.98-.986-4.375-.188-5.367 1.789-.988 1.977-.188 4.379 1.789 5.367 3.917 1.958 4.631 4.764 4.734 6.16-.369.22-.702.49-1.054.735l-28.103-14.052c-1.812-.91-4.008-.318-5.121 1.365-1.117 1.684-.805 3.936.73 5.25l24.604 21.088-16.807 22.547c-3.68 5.779-2.035 13.574 3.672 17.381 2.141 1.428 4.586 2.141 7.031 2.141 2.531 0 5.062-.764 7.266-2.291l17.907-12.631c.051.045.088.05.144.11 1.918 2.037 3.645 9.26 2.848 23.428-2.221 3.88-9.507 17.607-8.812 29.191h-47.25v-136h84zm-28.732 83.335c-.806-8.615 5.4-21.327 8.162-25.943.328-.549.523-1.17.562-1.807 1.062-16.945-1.15-24.327-3.062-27.774 5.804-3.356 7.274-9.245 7.062-12.719-.133-2.182-1.914-3.848-4.168-3.719-2.184.096-3.883 1.961-3.82 4.143.039 1.416-.422 6.09-8.055 6.758-.703.061-1.379.309-1.957.715l-19.41 13.691c-1.602 1.107-3.672 1.125-5.281.049-2.105-1.406-2.715-4.289-1.523-6.184l17.422-23.359c.516-.689.793-1.529.793-2.391 0-5.684 4.621-10.307 10.305-10.307 1.074 0 2.105-.432 2.855-1.199.754-.768 1.164-1.805 1.145-2.879l-.176-8.854c1.25.844 2.387 1.904 3.035 3.18.812 1.594.777 3.461-.109 5.703-.418 1.061-.363 2.25.148 3.268.516 1.02 1.438 1.77 2.539 2.064 6.398 1.713 12.09 5.076 16.457 9.725 1.831 1.955 3.827 4.543 5.809 7.493v70.346zm36.732-138.344 8-8v156.688l-8-8zm-100 0v141.011l-8 10.667v-159.678zm164-61.656v-12c0-2.209 1.789-4 4-4s4 1.791 4 4v12c0 2.209-1.789 4-4 4s-4-1.791-4-4zm13.172 6.828c-1.562-1.562-1.562-4.094 0-5.656l6-6c1.562-1.562 4.094-1.562 5.656 0s1.562 4.094 0 5.656l-6 6c-.781.781-1.805 1.172-2.828 1.172s-2.047-.391-2.828-1.172zm-30-6c-1.562-1.562-1.562-4.094 0-5.656s4.094-1.562 5.656 0l6 6c1.562 1.562 1.562 4.094 0 5.656-.781.781-1.805 1.172-2.828 1.172s-2.047-.391-2.828-1.172zm-87.172 123.172c0 2.209-1.791 4-4 4s-4-1.791-4-4 1.791-4 4-4 4 1.791 4 4z" fill="url(#SVGID_1_)"/></g></svg>