<svg id="bid" enable-background="new 0 0 300 300" height="512" viewBox="0 0 300 300" width="512" xmlns="http://www.w3.org/2000/svg" xmlns:xlink="http://www.w3.org/1999/xlink"><linearGradient id="SVGID_1_" gradientUnits="userSpaceOnUse" x1="57.852" x2="247.509" y1="256.061" y2="66.404"><stop offset="0" stop-color="#107eff"/><stop offset="1" stop-color="#8f16ff"/></linearGradient><g><path d="m116.247 108h28.729l6.895 13.789c.678 1.355 2.062 2.211 3.578 2.211s2.9-.855 3.578-2.211l6.894-13.789h28.729c7.057 0 12.799-5.742 12.799-12.799v-46.402c0-7.057-5.742-12.799-12.799-12.799h-78.402c-7.057 0-12.799 5.742-12.799 12.799v46.402c-.001 7.057 5.742 12.799 12.798 12.799zm-4.799-59.201c0-2.646 2.152-4.799 4.799-4.799h78.402c2.646 0 4.799 2.152 4.799 4.799v46.402c0 2.646-2.152 4.799-4.799 4.799h-31.201c-1.516 0-2.9.855-3.578 2.211l-4.422 8.846-4.422-8.846c-.678-1.355-2.062-2.211-3.578-2.211h-31.201c-2.646 0-4.799-2.152-4.799-4.799zm152.485 68.029c1.562 1.562 1.562 4.094 0 5.656-.781.781-1.805 1.172-2.828 1.172s-2.047-.391-2.828-1.172l-2.828-2.828-2.828 2.828c-.781.781-1.805 1.172-2.828 1.172s-2.047-.391-2.828-1.172c-1.562-1.562-1.562-4.094 0-5.656l2.828-2.828-2.828-2.828c-1.562-1.562-1.562-4.094 0-5.656s4.094-1.562 5.656 0l2.828 2.828 2.828-2.828c1.562-1.562 4.094-1.562 5.656 0s1.562 4.094 0 5.656l-2.828 2.828zm-220.485-31.231c0 2.362-1.915 4.276-4.276 4.276s-4.277-1.915-4.277-4.276 1.915-4.277 4.277-4.277 4.276 1.916 4.276 4.277zm84 2.403h13.107c3.801 0 6.893-3.092 6.893-6.893v-6.215c0-1.036-.246-2.01-.658-2.893.411-.883.658-1.856.658-2.893v-6.215c0-3.801-3.092-6.893-6.893-6.893h-13.107c-2.209 0-4 1.791-4 4v12 12c0 2.211 1.791 4.002 4 4.002zm12-8h-8v-4h8zm-8-16h8v4h-8zm36 24h7.004c7.166 0 12.996-5.83 12.996-12.996v-6.008c0-7.166-5.83-12.996-12.996-12.996h-7.004c-2.209 0-4 1.791-4 4v24c0 2.209 1.791 4 4 4zm4-24h3.004c2.754 0 4.996 2.242 4.996 4.996v6.008c0 2.754-2.242 4.996-4.996 4.996h-3.004zm-20 20v-24c0-2.209 1.791-4 4-4s4 1.791 4 4v24c0 2.209-1.791 4-4 4s-4-1.791-4-4zm68-12c0-2.209 1.791-4 4-4h16c2.209 0 4 1.791 4 4s-1.791 4-4 4h-16c-2.209 0-4-1.791-4-4zm1.172-9.172c-1.562-1.562-1.562-4.094 0-5.656l6-6c1.562-1.562 4.094-1.562 5.656 0s1.562 4.094 0 5.656l-6 6c-.781.781-1.805 1.172-2.828 1.172s-2.047-.391-2.828-1.172zm0 24c-1.562-1.562-1.562-4.094 0-5.656s4.094-1.562 5.656 0l6 6c1.562 1.562 1.562 4.094 0 5.656-.781.781-1.805 1.172-2.828 1.172s-2.047-.391-2.828-1.172zm-153.172-14.828c0-2.209 1.791-4 4-4h16c2.209 0 4 1.791 4 4s-1.791 4-4 4h-16c-2.209 0-4-1.791-4-4zm11.172-15.172c-1.562-1.562-1.562-4.094 0-5.656s4.094-1.562 5.656 0l6 6c1.562 1.562 1.562 4.094 0 5.656-.781.781-1.804 1.172-2.828 1.172s-2.047-.391-2.828-1.172zm11.656 24.344c1.562 1.562 1.562 4.094 0 5.656l-6 6c-.781.781-1.804 1.172-2.828 1.172s-2.047-.391-2.828-1.172c-1.562-1.562-1.562-4.094 0-5.656l6-6c1.563-1.563 4.094-1.563 5.656 0zm153.172 50.828h-176c-2.209 0-4 1.791-4 4v124c0 2.209 1.791 4 4 4h176c2.209 0 4-1.791 4-4v-124c0-2.209-1.791-4-4-4zm-80.242 68.008c-2.205.133-3.885 2.029-3.75 4.234.037.609.125 5.98-8.059 6.697-.703.061-1.379.309-1.955.715l-19.416 13.691c-1.594 1.104-3.664 1.123-5.277.049-2.107-1.406-2.717-4.289-1.521-6.184l17.418-23.359c.516-.689.793-1.529.793-2.391 0-5.684 4.625-10.307 10.309-10.307 1.074 0 2.104-.432 2.855-1.199.754-.768 1.164-1.805 1.145-2.879l-.176-8.852c1.248.844 2.387 1.902 3.035 3.178.811 1.594.775 3.461-.109 5.703-.418 1.061-.365 2.25.148 3.268.514 1.02 1.436 1.77 2.537 2.064 6.4 1.713 12.09 5.076 16.457 9.727 7.351 7.829 18.329 26.74 21.287 45.836h-35.287c.46-13.927-1.517-20.373-3.261-23.523 5.804-3.356 7.273-9.245 7.062-12.719-.133-2.204-2.045-3.911-4.235-3.749zm43.789 39.992c-2.794-20.04-13.948-41.114-23.524-51.312-4.502-4.795-10.125-8.475-16.428-10.779.482-3.537-.369-6.305-1.332-8.182-3.594-6.996-12.309-9.359-13.289-9.605-1.213-.312-2.49-.025-3.465.75-.977.775-1.533 1.961-1.51 3.207l.11 5.526c-1.369-1.872-3.362-3.703-6.321-5.183-1.979-.99-4.379-.184-5.367 1.789-.988 1.977-.188 4.379 1.789 5.367 3.916 1.958 4.631 4.763 4.733 6.16-.369.22-.701.49-1.053.735l-28.102-14.051c-1.811-.898-4.006-.318-5.121 1.365-1.117 1.684-.805 3.936.729 5.25l24.602 21.087-16.799 22.548c-3.684 5.779-2.039 13.574 3.664 17.379 4.367 2.91 9.971 2.855 14.299-.148l17.912-12.631c.049.043.084.047.137.104 1.771 1.874 3.376 8.322 2.957 20.625h-68.168v-84h136v84h-16.453zm-127.547-86.344v88.688l-8 8v-104.688zm152 88.688v-88.688l8-8v104.688zm-80-46.344c0 2.209-1.791 4-4 4s-4-1.791-4-4 1.791-4 4-4 4 1.791 4 4z" fill="url(#SVGID_1_)"/></g></svg>