<svg id="box" enable-background="new 0 0 300 300" height="512" viewBox="0 0 300 300" width="512" xmlns="http://www.w3.org/2000/svg" xmlns:xlink="http://www.w3.org/1999/xlink"><linearGradient id="SVGID_1_" gradientUnits="userSpaceOnUse" x1="49.344" x2="228.714" y1="257" y2="77.63"><stop offset="0" stop-color="#107eff"/><stop offset="1" stop-color="#8f16ff"/></linearGradient><g><path d="m154 108v4h8c2.209 0 4 1.791 4 4s-1.791 4-4 4h-8v8c0 2.209-1.791 4-4 4s-4-1.791-4-4v-24c0-2.209 1.791-4 4-4h12c2.209 0 4 1.791 4 4s-1.791 4-4 4zm-16-8c-2.209 0-4 1.791-4 4v6.344l-9.172-9.172c-1.146-1.146-2.863-1.486-4.359-.867-1.494.619-2.469 2.078-2.469 3.695v24c0 2.209 1.791 4 4 4s4-1.791 4-4v-14.344l8 8v6.344c0 2.209 1.791 4 4 4s4-1.791 4-4v-24c0-2.209-1.791-4-4-4zm48 28v-20h4c2.209 0 4-1.791 4-4s-1.791-4-4-4h-16c-2.209 0-4 1.791-4 4s1.791 4 4 4h4v20c0 2.209 1.791 4 4 4s4-1.791 4-4zm79.498 61.939c-.705 1.272-2.043 2.061-3.498 2.061h-16v68c0 2.209-1.791 4-4 4h-184c-2.209 0-4-1.791-4-4v-68h-16c-1.455 0-2.793-.789-3.498-2.061s-.664-2.826.105-4.059l20-32c.733-1.169 2.014-1.88 3.393-1.88h24.574c-5.607-11.117-8.574-23.429-8.574-36 0-44.111 35.889-80 80-80s80 35.889 80 80c0 12.569-2.966 24.881-8.574 36h16.574c1.379 0 2.66.711 3.393 1.881l20 32c.769 1.232.81 2.787.105 4.058zm-173.819-37.939h19.526c-8.439-10.016-13.205-22.671-13.205-36 0-30.879 25.121-56 56-56s56 25.121 56 56c0 13.319-4.77 25.981-13.207 36h19.53c6.314-10.913 9.677-23.308 9.677-36 0-39.701-32.299-72-72-72s-72 32.299-72 72c0 12.697 3.365 25.091 9.679 36zm94.001 0c10.362-9.129 16.32-22.165 16.32-36 0-26.467-21.533-48-48-48s-48 21.533-48 48c0 13.847 5.961 26.872 16.33 36zm-140.463 32h118.566l15-24h-118.566zm16.783 72h120v-86.053l-12.607 20.172c-.733 1.17-2.014 1.881-3.393 1.881h-104zm192.783-72-15-24h-46.566l15 24zm-84.783 52h-36c-2.209 0-4 1.791-4 4s1.791 4 4 4h36c2.209 0 4-1.791 4-4s-1.791-4-4-4zm-122-117.471c2.501 0 4.53-2.028 4.53-4.529 0-2.502-2.028-4.53-4.53-4.53s-4.53 2.028-4.53 4.53c0 2.501 2.029 4.529 4.53 4.529zm-2.484-42.045c.781.781 1.805 1.172 2.828 1.172s2.047-.391 2.828-1.172l2.828-2.828 2.828 2.828c.781.781 1.805 1.172 2.828 1.172s2.047-.391 2.828-1.172c1.562-1.562 1.562-4.094 0-5.656l-2.828-2.828 2.828-2.828c1.562-1.562 1.562-4.094 0-5.656s-4.094-1.562-5.656 0l-2.828 2.828-2.828-2.828c-1.562-1.562-4.094-1.562-5.656 0s-1.562 4.094 0 5.656l2.828 2.828-2.828 2.828c-1.563 1.563-1.563 4.094 0 5.656zm108.484-20.484c2.209 0 4-1.791 4-4s-1.791-4-4-4-4 1.791-4 4 1.791 4 4 4zm64 64c2.209 0 4-1.791 4-4s-1.791-4-4-4-4 1.791-4 4 1.791 4 4 4zm-128-8c-2.209 0-4 1.791-4 4s1.791 4 4 4 4-1.791 4-4-1.791-4-4-4zm21.573-38.427c1.562-1.562 1.562-4.095 0-5.657s-4.095-1.562-5.657 0-1.562 4.095 0 5.657c1.563 1.563 4.095 1.563 5.657 0zm90.51 0c1.562-1.562 1.562-4.095 0-5.657s-4.095-1.562-5.657 0-1.562 4.095 0 5.657c1.563 1.563 4.095 1.563 5.657 0z" fill="url(#SVGID_1_)"/></g></svg>