<svg id="coin" enable-background="new 0 0 300 300" height="512" viewBox="0 0 300 300" width="512" xmlns="http://www.w3.org/2000/svg" xmlns:xlink="http://www.w3.org/1999/xlink"><linearGradient id="SVGID_1_" gradientUnits="userSpaceOnUse" x1="78.359" x2="258.303" y1="230.106" y2="50.162"><stop offset="0" stop-color="#00e7df"/><stop offset="1" stop-color="#4d54fe"/></linearGradient><g><path d="m224.755 88c6.617 0 12-5.383 12-12s-5.383-12-12-12-12 5.383-12 12 5.383 12 12 12zm0-16c2.207 0 4 1.795 4 4s-1.793 4-4 4-4-1.795-4-4 1.793-4 4-4zm36 72c0 2.209-1.789 4-4 4h-4v4c0 2.209-1.789 4-4 4s-4-1.791-4-4v-4h-4c-2.211 0-4-1.791-4-4s1.789-4 4-4h4v-4c0-2.209 1.789-4 4-4s4 1.791 4 4v4h4c2.211 0 4 1.791 4 4zm2.49-87.125c0 2.362-1.915 4.276-4.277 4.276s-4.276-1.915-4.276-4.276c0-2.362 1.915-4.277 4.276-4.277s4.277 1.915 4.277 4.277zm-90.49 67.125c0-30.879-25.121-56-56-56s-56 25.121-56 56 25.121 56 56 56 56-25.121 56-56zm-104 0c0-26.467 21.533-48 48-48s48 21.533 48 48-21.533 48-48 48-48-21.533-48-48zm48 12c0 2.209-1.791 4-4 4s-4-1.791-4-4v-24c0-2.209 1.791-4 4-4h12c2.209 0 4 1.791 4 4s-1.791 4-4 4h-8v4h8c2.209 0 4 1.791 4 4s-1.791 4-4 4h-8zm-12-24v24c0 2.209-1.791 4-4 4s-4-1.791-4-4v-6.344l-8-8v14.344c0 2.209-1.791 4-4 4s-4-1.791-4-4v-24c0-1.617.975-3.076 2.469-3.695 1.498-.623 3.211-.279 4.359.867l9.172 9.172v-6.344c0-2.209 1.791-4 4-4s4 1.791 4 4zm28 0c0-2.209 1.791-4 4-4h16c2.211 0 4 1.791 4 4s-1.789 4-4 4h-4v20c0 2.209-1.789 4-4 4-2.209 0-4-1.791-4-4v-20h-4c-2.209 0-4-1.791-4-4zm-20-52c0-2.209 1.791-4 4-4s4 1.791 4 4-1.791 4-4 4-4-1.791-4-4zm64 64c0-2.209 1.791-4 4-4s4 1.791 4 4-1.791 4-4 4-4-1.791-4-4zm-120 0c0 2.209-1.791 4-4 4s-4-1.791-4-4 1.791-4 4-4 4 1.791 4 4zm108.084 42.426c1.562 1.562 1.562 4.095 0 5.657s-4.095 1.562-5.657 0-1.562-4.095 0-5.657 4.095-1.562 5.657 0zm-96.167-84.853c-1.562-1.562-1.562-4.095 0-5.657s4.095-1.562 5.657 0 1.562 4.095 0 5.657c-1.562 1.563-4.095 1.563-5.657 0zm90.51 0c-1.562-1.562-1.562-4.095 0-5.657s4.095-1.562 5.657 0 1.562 4.095 0 5.657c-1.562 1.563-4.095 1.563-5.657 0zm-84.853 84.853c1.562 1.562 1.562 4.095 0 5.657s-4.095 1.562-5.657 0-1.562-4.095 0-5.657 4.095-1.562 5.657 0zm150.821 17.574h-55.516c17.143-15.081 27.122-36.76 27.122-60 0-44.111-35.887-80-80-80-44.111 0-80 35.889-80 80 0 35.205 23.002 66.062 56.328 76.366-.178 1.06-.328 2.131-.328 3.241v32.785c0 10.812 8.795 19.607 19.607 19.607h112.787c10.809 0 19.605-8.795 19.605-19.607v-32.785c0-10.812-8.797-19.607-19.605-19.607zm-180.395-60c0-39.701 32.299-72 72-72 39.699 0 72 32.299 72 72 0 24.234-12.04 46.595-32.221 60h-44.172c-6.855 0-12.879 3.549-16.385 8.893-30.277-9.107-51.222-37.021-51.222-68.893zm192 112.393c0 6.4-5.207 11.607-11.605 11.607h-112.787c-6.4 0-11.607-5.207-11.607-11.607v-32.785c0-6.4 5.207-11.607 11.607-11.607h112.787c6.398 0 11.605 5.207 11.605 11.607zm-96-24.393c2.209 0 4-1.791 4-4s-1.791-4-4-4h-8v-4c0-2.209-1.791-4-4-4s-4 1.791-4 4v4h-8c-2.209 0-4 1.791-4 4v12c0 2.209 1.791 4 4 4h8v4h-8c-2.209 0-4 1.791-4 4s1.791 4 4 4h8v4c0 2.209 1.791 4 4 4s4-1.791 4-4v-4h8c2.209 0 4-1.791 4-4v-12c0-2.209-1.791-4-4-4h-8v-4zm-4 12v4h-4v-4zm-12-8h-4v-4h4zm56-4c2.211 0 4-1.791 4-4s-1.789-4-4-4h-8v-4c0-2.209-1.789-4-4-4s-4 1.791-4 4v4h-8c-2.211 0-4 1.791-4 4v12c0 2.209 1.789 4 4 4h8v4h-8c-2.211 0-4 1.791-4 4s1.789 4 4 4h8v4c0 2.209 1.789 4 4 4s4-1.791 4-4v-4h8c2.211 0 4-1.791 4-4v-12c0-2.209-1.789-4-4-4h-8v-4zm-4 12v4h-4v-4zm-12-8h-4v-4h4zm56-4c2.211 0 4-1.791 4-4s-1.789-4-4-4h-8v-4c0-2.209-1.789-4-4-4s-4 1.791-4 4v4h-8c-2.211 0-4 1.791-4 4v12c0 2.209 1.789 4 4 4h8v4h-8c-2.211 0-4 1.791-4 4s1.789 4 4 4h8v4c0 2.209 1.789 4 4 4s4-1.791 4-4v-4h8c2.211 0 4-1.791 4-4v-12c0-2.209-1.789-4-4-4h-8v-4zm-4 12v4h-4v-4zm-12-8h-4v-4h4z" fill="url(#SVGID_1_)"/></g></svg>