<svg id="digital-art" enable-background="new 0 0 300 300" height="512" viewBox="0 0 300 300" width="512" xmlns="http://www.w3.org/2000/svg" xmlns:xlink="http://www.w3.org/1999/xlink"><linearGradient id="SVGID_1_" gradientUnits="userSpaceOnUse" x1="51.825" x2="273.696" y1="275.863" y2="53.992"><stop offset="0" stop-color="#107eff"/><stop offset="1" stop-color="#8f16ff"/></linearGradient><g><path d="m75.489 95.215 3.172-3.172-3.172-3.172c-1.562-1.562-1.562-4.094 0-5.656s4.094-1.562 5.656 0l3.172 3.172 3.172-3.172c1.562-1.562 4.094-1.562 5.656 0s1.562 4.094 0 5.656l-3.172 3.172 3.172 3.172c1.562 1.562 1.562 4.094 0 5.656-.781.781-1.805 1.172-2.828 1.172s-2.047-.391-2.828-1.172l-3.172-3.171-3.172 3.172c-.781.781-1.805 1.172-2.828 1.172s-2.047-.391-2.828-1.172c-1.562-1.563-1.562-4.094 0-5.657zm14.828-33.172c2.209 0 4-1.791 4-4s-1.791-4-4-4-4 1.791-4 4 1.791 4 4 4zm36-2c0-7.719 6.281-14 14-14s14 6.281 14 14-6.281 14-14 14-14-6.281-14-14zm8 0c0 3.309 2.691 6 6 6s6-2.691 6-6-2.691-6-6-6-6 2.692-6 6zm134.551-5.986-48.594 63.986h24.932c7.23 0 13.111 5.881 13.111 13.111v117.777c0 7.23-5.881 13.111-13.111 13.111h-201.777c-7.23 0-13.111-5.881-13.111-13.111v-117.776c0-7.23 5.881-13.111 13.111-13.111h146.706l59.62-78.504c.643-.844 1.592-1.4 2.645-1.543 1.053-.152 2.113.135 2.961.777l12.742 9.678c1.757 1.336 2.101 3.845.765 5.605zm-103.592 98.656c-.145-1.051.137-2.115.777-2.961l5.854-7.709h-85.59v96h148v-96h-32.271l-16.88 22.227c-.643.844-1.594 1.4-2.645 1.543l-11.211 1.531c-.184.025-.365.037-.547.037-1.969 0-3.684-1.453-3.957-3.459zm-126.959-21.558v70.889h40v-64c0-2.209 1.791-4 4-4h95.667l6.076-8h-140.631c-2.819-.001-5.112 2.292-5.112 5.111zm40 78.888h-40v16h40zm135.881-84-6.076 8h30.195c2.209 0 4 1.791 4 4v104c0 2.209-1.791 4-4 4h-156c-2.209 0-4-1.791-4-4v-8h-40v14.889c0 2.818 2.293 5.111 5.111 5.111h201.777c2.818 0 5.111-2.293 5.111-5.111v-117.777c0-2.818-2.293-5.111-5.111-5.111h-31.007zm45.879-73.64-6.371-4.838-3.866 5.091 6.371 4.839zm-209.76 97.64h16c2.209 0 4-1.791 4-4s-1.791-4-4-4h-16c-2.209 0-4 1.791-4 4s1.791 4 4 4zm0 12h16c2.209 0 4-1.791 4-4s-1.791-4-4-4h-16c-2.209 0-4 1.791-4 4s1.791 4 4 4zm-8 20c0-8.822 7.178-16 16-16s16 7.178 16 16-7.178 16-16 16-16-7.177-16-16zm8 0c0 4.412 3.588 8 8 8s8-3.588 8-8-3.588-8-8-8-8 3.588-8 8z" fill="url(#SVGID_1_)"/></g></svg>