<svg id="digital-pencil" enable-background="new 0 0 300 300" height="512" viewBox="0 0 300 300" width="512" xmlns="http://www.w3.org/2000/svg" xmlns:xlink="http://www.w3.org/1999/xlink"><linearGradient id="SVGID_1_" gradientUnits="userSpaceOnUse" x1="53.172" x2="241.828" y1="230.828" y2="42.172"><stop offset="0" stop-color="#107eff"/><stop offset="1" stop-color="#8f16ff"/></linearGradient><g><path d="m70.828 186.828-3.172 3.172 3.172 3.172c1.562 1.562 1.562 4.094 0 5.656-.781.781-1.805 1.172-2.828 1.172s-2.047-.391-2.828-1.172l-3.172-3.172-3.172 3.172c-.781.781-1.805 1.172-2.828 1.172s-2.047-.391-2.828-1.172c-1.562-1.562-1.562-4.094 0-5.656l3.172-3.172-3.172-3.172c-1.562-1.562-1.562-4.094 0-5.656s4.094-1.562 5.656 0l3.172 3.172 3.172-3.172c1.562-1.562 4.094-1.562 5.656 0s1.563 4.094 0 5.656zm13.172 45.172c-2.209 0-4 1.791-4 4s1.791 4 4 4 4-1.791 4-4-1.791-4-4-4zm164-22c0 7.719-6.281 14-14 14s-14-6.281-14-14 6.281-14 14-14 14 6.281 14 14zm-8 0c0-3.309-2.691-6-6-6s-6 2.691-6 6 2.691 6 6 6 6-2.691 6-6zm-107.881 6.971c-.078-.319-.119-.645-.119-.971v-174.068c0-7.682 6.25-13.932 13.932-13.932h4.137c7.681 0 13.931 6.25 13.931 13.932v174.068c0 .326-.041.652-.119.971l-8 32c-.445 1.779-2.045 3.029-3.881 3.029v4c0 2.209-1.791 4-4 4s-4-1.791-4-4v-4c-1.836 0-3.436-1.25-3.881-3.029zm23.881-4.971v-152h-16v152zm-8-104c2.209 0 4-1.791 4-4s-1.791-4-4-4-4 1.791-4 4 1.791 4 4 4zm0 4c-2.209 0-4 1.791-4 4s1.791 4 4 4 4-1.791 4-4-1.791-4-4-4zm-64 0c2.209 0 4-1.791 4-4s-1.791-4-4-4-4 1.791-4 4 1.791 4 4 4zm0-12c2.209 0 4-1.791 4-4s-1.791-4-4-4-4 1.791-4 4 1.791 4 4 4zm-24-56c2.209 0 4-1.791 4-4s-1.791-4-4-4-4 1.791-4 4 1.791 4 4 4zm88 80c-2.209 0-4 1.791-4 4s1.791 4 4 4 4-1.791 4-4-1.791-4-4-4zm0 12c-2.209 0-4 1.791-4 4s1.791 4 4 4 4-1.791 4-4-1.791-4-4-4zm-48-56c2.209 0 4-1.791 4-4s-1.791-4-4-4-4 1.791-4 4 1.791 4 4 4zm0-12c2.209 0 4-1.791 4-4s-1.791-4-4-4-4 1.791-4 4 1.791 4 4 4zm0-12c2.209 0 4-1.791 4-4s-1.791-4-4-4-4 1.791-4 4 1.791 4 4 4zm0-12c2.209 0 4-1.791 4-4s-1.791-4-4-4-4 1.791-4 4 1.791 4 4 4zm100 220h-104c-2.209 0-4 1.791-4 4s1.791 4 4 4h104c2.209 0 4-1.791 4-4s-1.791-4-4-4zm-80.828-43.172c.781.781 1.805 1.172 2.828 1.172s2.047-.391 2.828-1.172c1.562-1.562 1.562-4.094 0-5.656l-36.828-36.828v-58.344c0-2.209-1.791-4-4-4s-4 1.791-4 4v60c0 1.061.422 2.078 1.172 2.828zm-2-46c.781.781 1.805 1.172 2.828 1.172s2.047-.391 2.828-1.172c1.562-1.562 1.562-4.094 0-5.656l-18.828-18.828v-62.344c0-2.209-1.791-4-4-4s-4 1.791-4 4v64c0 1.061.422 2.078 1.172 2.828zm-53.172-28.484v-94.344c0-2.209-1.791-4-4-4s-4 1.791-4 4v96c0 1.061.422 2.078 1.172 2.828l12 12c.781.781 1.805 1.172 2.828 1.172s2.047-.391 2.828-1.172c1.562-1.562 1.562-4.094 0-5.656zm146-42.344c-2.209 0-4 1.791-4 4s1.791 4 4 4 4-1.791 4-4-1.791-4-4-4zm0-12c-2.209 0-4 1.791-4 4s1.791 4 4 4 4-1.791 4-4-1.791-4-4-4zm24-48c2.209 0 4-1.791 4-4s-1.791-4-4-4-4 1.791-4 4 1.791 4 4 4zm-40 36c2.209 0 4-1.791 4-4s-1.791-4-4-4-4 1.791-4 4 1.791 4 4 4zm0-12c2.209 0 4-1.791 4-4s-1.791-4-4-4-4 1.791-4 4 1.791 4 4 4zm0-12c2.209 0 4-1.791 4-4s-1.791-4-4-4-4 1.791-4 4 1.791 4 4 4zm0-12c2.209 0 4-1.791 4-4s-1.791-4-4-4-4 1.791-4 4 1.791 4 4 4zm16 72c-2.209 0-4 1.791-4 4v58.344l-36.828 36.828c-1.562 1.562-1.562 4.094 0 5.656.781.781 1.805 1.172 2.828 1.172s2.047-.391 2.828-1.172l38-38c.75-.75 1.172-1.768 1.172-2.828v-60c0-2.209-1.791-4-4-4zm-36 60c1.023 0 2.047-.391 2.828-1.172l20-20c.75-.75 1.172-1.768 1.172-2.828v-64c0-2.209-1.791-4-4-4s-4 1.791-4 4v62.344l-18.828 18.828c-1.562 1.562-1.562 4.094 0 5.656.781.781 1.805 1.172 2.828 1.172zm50.828-13.172 12-12c.75-.75 1.172-1.768 1.172-2.828v-96c0-2.209-1.791-4-4-4s-4 1.791-4 4v94.344l-10.828 10.828c-1.562 1.562-1.562 4.094 0 5.656.781.781 1.805 1.172 2.828 1.172s2.047-.391 2.828-1.172z" fill="url(#SVGID_1_)"/></g></svg>