<svg id="eth" enable-background="new 0 0 300 300" height="512" viewBox="0 0 300 300" width="512" xmlns="http://www.w3.org/2000/svg" xmlns:xlink="http://www.w3.org/1999/xlink">
    <linearGradient id="SVGID_1_" gradientUnits="userSpaceOnUse" x1="103.388" x2="243.024" y1="220.993" y2="81.357">
        <stop offset="0" stop-color="#00e7df"/>
        <stop offset="1" stop-color="#4d54fe"/>
    </linearGradient>
    <g>
        <path d="m216.467 237.102-2.828 2.828 2.828 2.828c1.562 1.562 1.562 4.094 0 5.656-.781.781-1.805 1.172-2.828 1.172s-2.047-.391-2.828-1.172l-2.828-2.828-2.828 2.828c-.781.781-1.805 1.172-2.828 1.172s-2.047-.391-2.828-1.172c-1.562-1.562-1.562-4.094 0-5.656l2.828-2.828-2.828-2.828c-1.562-1.562-1.562-4.094 0-5.656s4.094-1.562 5.656 0l2.828 2.828 2.828-2.828c1.562-1.562 4.094-1.562 5.656 0s1.562 4.094 0 5.656zm-124.485-153.172c0 2.209 1.789 4 4 4s4-1.791 4-4v-4h4c2.211 0 4-1.791 4-4s-1.789-4-4-4h-4v-4c0-2.209-1.789-4-4-4s-4 1.791-4 4v4h-4c-2.211 0-4 1.791-4 4s1.789 4 4 4h4zm-39.982 12.174c-2.362 0-4.276 1.915-4.276 4.276s1.915 4.276 4.276 4.276 4.276-1.915 4.276-4.276-1.914-4.276-4.276-4.276zm172-32c-2.362 0-4.276 1.915-4.276 4.276s1.915 4.276 4.276 4.276 4.276-1.915 4.276-4.276-1.914-4.276-4.276-4.276zm24 180c-2.362 0-4.276 1.915-4.276 4.276s1.915 4.276 4.276 4.276 4.276-1.915 4.276-4.276-1.914-4.276-4.276-4.276zm-151.463-122.209 52-88c1.445-2.434 5.445-2.434 6.891 0l52 88c1.027 1.74.594 3.973-1.008 5.205l-52 40c-.719.553-1.578.83-2.438.83s-1.719-.277-2.438-.83l-52-40c-1.601-1.232-2.034-3.465-1.007-5.205zm51.445-22.806-40.962 25.208 40.962 31.51zm44.335 12.965-36.334-61.491v39.132zm-44.335-61.491-36.334 61.491 36.334-22.36zm67.622 87.064-60 128c-.656 1.406-2.07 2.303-3.621 2.303s-2.965-.896-3.621-2.303l-60-128c-.789-1.684-.316-3.689 1.145-4.84 1.457-1.152 3.52-1.145 4.977.02l57.5 46 57.5-46c1.453-1.164 3.516-1.172 4.977-.02 1.459 1.151 1.932 3.157 1.143 4.84zm-112.711 12.155 45.09 96.191v-60.12zm137.089 66.148c-6.617 0-12-5.383-12-12s5.383-12 12-12 12 5.383 12 12-5.382 12-12 12zm4-12c0-2.205-1.793-4-4-4s-4 1.795-4 4 1.793 4 4 4 4-1.795 4-4z" fill="url(#SVGID_1_)"/>
    </g>
</svg>