<svg id="gaming-assets" enable-background="new 0 0 300 300" height="512" viewBox="0 0 300 300" width="512" xmlns="http://www.w3.org/2000/svg" xmlns:xlink="http://www.w3.org/1999/xlink"><linearGradient id="SVGID_1_" gradientUnits="userSpaceOnUse" x1="50.743" x2="241.045" y1="244.4" y2="54.097"><stop offset="0" stop-color="#107eff"/><stop offset="1" stop-color="#8f16ff"/></linearGradient><g><path d="m260.828 203.172c1.562 1.562 1.562 4.094 0 5.656-.781.781-1.805 1.172-2.828 1.172s-2.047-.391-2.828-1.172l-3.172-3.172-3.172 3.172c-.781.781-1.805 1.172-2.828 1.172s-2.047-.391-2.828-1.172c-1.562-1.562-1.562-4.094 0-5.656l3.172-3.172-3.172-3.172c-1.562-1.562-1.562-4.094 0-5.656s4.094-1.562 5.656 0l3.172 3.172 3.172-3.172c1.562-1.562 4.094-1.562 5.656 0s1.562 4.094 0 5.656l-3.172 3.172zm-14.828-37.172c2.209 0 4-1.791 4-4s-1.791-4-4-4-4 1.791-4 4 1.791 4 4 4zm-16-116.564v129.129c0 8.512-6.924 15.436-15.436 15.436h-125.128c-8.512-.001-15.436-6.925-15.436-15.437v-129.128c0-8.512 6.924-15.436 15.436-15.436h125.129c8.511 0 15.435 6.924 15.435 15.436zm-8 0c0-4.1-3.336-7.436-7.436-7.436h-125.128c-4.1 0-7.436 3.336-7.436 7.436v129.129c0 4.1 3.336 7.436 7.436 7.436h125.129c4.1 0 7.436-3.336 7.436-7.436v-129.129zm-10.508 84.564c0 15.439-12.561 28-28 28-10.857 0-20.68-6.324-25.273-16h-13.451c-4.594 9.676-14.418 16-25.275 16-15.439 0-28-12.561-28-28s12.561-28 28-28h30.507v-14c0-5.514-4.486-10-10-10-9.926 0-18-8.074-18-18v-2c0-2.209 1.791-4 4-4s4 1.791 4 4v2c0 5.514 4.486 10 10 10 9.926 0 18 8.074 18 18v14h25.492c15.44 0 28 12.561 28 28zm-8 0c0-11.027-8.973-20-20-20h-64c-11.027 0-20 8.973-20 20s8.973 20 20 20c8.443 0 16.012-5.359 18.834-13.334.566-1.598 2.076-2.666 3.771-2.666h18.791c1.695 0 3.205 1.068 3.771 2.666 2.822 7.975 10.391 13.334 18.832 13.334 11.029 0 20.001-8.973 20.001-20zm-77.492-4h-4v-4c0-2.209-1.791-4-4-4s-4 1.791-4 4v4h-4c-2.209 0-4 1.791-4 4s1.791 4 4 4h4v4c0 2.209 1.791 4 4 4s4-1.791 4-4v-4h4c2.209 0 4-1.791 4-4s-1.791-4-4-4zm64-4c-2.209 0-4 1.791-4 4s1.791 4 4 4 4-1.791 4-4-1.791-4-4-4zm36 108c0 17.645-14.355 32-32 32h-88c-17.645 0-32-14.355-32-32s14.355-32 32-32h88c17.645 0 32 14.355 32 32zm-8 0c0-13.234-10.766-24-24-24h-88c-13.234 0-24 10.766-24 24s10.766 24 24 24h88c13.234 0 24-10.766 24-24zm-40-100c-2.209 0-4 1.791-4 4s1.791 4 4 4 4-1.791 4-4-1.791-4-4-4zm-41.613 91.119v6.217c0 1.036-.246 2.01-.658 2.892.411.882.658 1.855.658 2.891v6.217c0 3.801-3.092 6.893-6.891 6.893h-13.109c-2.209 0-4-1.791-4-4v-12-12c0-2.209 1.791-4 4-4h13.109c3.799 0 6.891 3.091 6.891 6.89zm-16 5.11h8v-4h-8zm8 8h-8v4h8zm32-20c-2.209 0-4 1.791-4 4v19.156c0 .465-.377.844-.842.844h-6.314c-.465 0-.844-.379-.844-.844v-19.156c0-2.209-1.791-4-4-4s-4 1.791-4 4v19.156c0 4.877 3.967 8.844 8.844 8.844h6.314c4.875 0 8.842-3.967 8.842-8.844v-19.156c0-2.209-1.791-4-4-4zm24.672 1.781-4.672 7.008-4.672-7.008c-1.225-1.84-3.713-2.338-5.547-1.109-1.838 1.225-2.334 3.709-1.109 5.547l7.328 10.992v10.789c0 2.209 1.791 4 4 4s4-1.791 4-4v-10.789l7.328-10.992c1.225-1.838.729-4.322-1.109-5.547-1.84-1.229-4.323-.731-5.547 1.109zm-128.231-120.838c-1.562-1.562-4.094-1.562-5.656 0s-1.562 4.094 0 5.656l5.172 5.172h-14.344c-2.209 0-4 1.791-4 4v116c0 2.209 1.791 4 4 4h20c2.209 0 4-1.791 4-4s-1.791-4-4-4h-16v-108h10.344l-5.172 5.172c-1.562 1.562-1.562 4.094 0 5.656.781.781 1.805 1.172 2.828 1.172s2.047-.391 2.828-1.172l12-12c1.562-1.562 1.562-4.094 0-5.656z" fill="url(#SVGID_1_)"/></g></svg>