<svg id="kitty" enable-background="new 0 0 300 300" height="512" viewBox="0 0 300 300" width="512" xmlns="http://www.w3.org/2000/svg" xmlns:xlink="http://www.w3.org/1999/xlink"><linearGradient id="SVGID_1_" gradientUnits="userSpaceOnUse" x1="51.744" x2="271.828" y1="258.256" y2="38.172"><stop offset="0" stop-color="#107eff"/><stop offset="1" stop-color="#8f16ff"/></linearGradient><g><path d="m237 44h-166c-12.684 0-23 10.318-23 23.002v177.996c0 12.684 10.316 23.002 23 23.002h166c12.684 0 23-10.318 23-23.002v-177.996c0-12.684-10.316-23.002-23-23.002zm15 200.998c0 8.271-6.73 15.002-15 15.002h-166c-8.27 0-15-6.73-15-15.002v-177.996c0-8.272 6.73-15.002 15-15.002h166c8.27 0 15 6.73 15 15.002zm-12-148.998h-172c-2.211 0-4 1.791-4 4v148c0 2.209 1.789 4 4 4h172c2.211 0 4-1.791 4-4v-148c0-2.209-1.789-4-4-4zm-128 96c-.556 0-8.86.071-17.279 3.296-1.307-1.822-2.226-3.736-2.568-5.685l6.414-5.359c.906-.76 1.434-1.883 1.434-3.068 0-.48.057-.946.072-1.423 5.417 2.453 8.5 6.342 8.736 6.654.789 1.039 1.984 1.586 3.195 1.586.836 0 1.676-.26 2.395-.801 1.77-1.324 2.129-3.832.801-5.6-2.489-3.32-7.44-7.641-14.147-10.025 4.42-20.31 22.517-35.574 44.131-35.574h13.633c22.171 0 40.624 16.065 44.428 37.158-4.828 2.443-8.438 5.768-10.443 8.442-1.328 1.768-.969 4.275.801 5.6.719.541 1.559.801 2.395.801 1.219 0 2.418-.553 3.203-1.6.043-.056 1.792-2.298 4.965-4.481.174.896.561 1.738 1.27 2.332l6.414 5.359c-.274 1.56-.933 3.096-1.843 4.583-7.18-2.13-13.524-2.195-14.007-2.195-2.207 0-3.992 1.787-3.996 3.994s1.785 3.998 3.988 4.006c.077 0 3.396.038 7.683.864-5.689 4.249-13.333 7.136-19.804 7.136h-10.77c-1.566 0-2.984.912-3.637 2.336-2.688 5.871-8.574 9.664-15 9.664h-4.93c-6.426 0-12.312-3.793-15-9.664-.652-1.424-2.07-2.336-3.637-2.336h-10.77c-6.106 0-13.251-2.58-18.819-6.44 5.649-1.497 10.604-1.56 10.698-1.56 2.203-.008 3.992-1.799 3.988-4.006s-1.787-3.994-3.994-3.994zm-6.172-71.379c7.789 2.34 13.326 7.428 17.098 12.328-8.559 3.966-15.917 10.095-21.289 17.745-4.423-11.056 1.366-24.572 4.191-30.073zm93.496 26.151c-5.696-6.696-13.032-11.934-21.366-15.163 3.679-4.388 8.914-8.844 16.03-10.988 2.5 4.867 7.313 16.006 5.336 26.151zm-66.1 74.913c4.42 3.962 10.188 6.315 16.312 6.315h4.93c6.125 0 11.894-2.354 16.313-6.317 2.833 1.845 5.402 4.081 7.647 6.665-5.956 1.344-10.426 6.657-10.426 13.013v2.639h-32v-2.639c0-6.355-4.468-11.667-10.422-13.012 2.245-2.584 4.813-4.82 7.646-6.664zm58.776 22.315h-16v-2.639c0-2.957 2.402-5.361 5.359-5.361h5.281c2.957 0 5.359 2.404 5.359 5.361v2.639zm-74.641-8h5.281c2.957 0 5.359 2.404 5.359 5.361v2.639h-16v-2.639c.001-2.957 2.403-5.361 5.36-5.361zm118.641 8h-36v-2.639c0-6.809-5.138-12.382-11.73-13.197-3.111-4.783-7.026-8.916-11.582-12.165h7.184c9.187 0 21.167-4.719 28.757-12.301 3.151 1.493 6.079 3.573 8.043 6.52.77 1.156 2.039 1.781 3.332 1.781.762 0 1.531-.217 2.215-.672 1.84-1.225 2.336-3.709 1.109-5.547-2.547-3.821-6.067-6.555-9.822-8.551 1.558-2.896 2.494-6.027 2.494-9.361 0-1.186-.527-2.309-1.434-3.068l-6.602-5.516c-.01-.288-.058-.565-.072-.852 4.044-.987 8.947-.992 14.623 1.281 2.039.816 4.379-.176 5.199-2.229s-.18-4.379-2.23-5.201c-6.924-2.768-13.218-2.972-18.627-1.826-1.141-5.542-3.101-10.788-5.824-15.558 8.34-18.182-5.047-40.071-5.643-41.02-.879-1.408-2.531-2.123-4.176-1.803-12.356 2.471-20.512 10.283-25.472 17.071-3.53-.74-7.18-1.149-10.927-1.149h-13.633c-5.018 0-9.859.736-14.465 2.041-4.453-6.337-12.871-15.312-26.121-17.963-1.633-.32-3.297.395-4.176 1.803-.686 1.093-16.011 26.198-3.446 44.904-1.641 3.518-2.89 7.246-3.732 11.129-4.464-.347-9.405.245-14.728 2.372-2.051.822-3.051 3.148-2.23 5.201.82 2.051 3.168 3.043 5.199 2.229 3.946-1.581 7.507-2.054 10.674-1.886-.031.488-.106.964-.124 1.456l-6.602 5.516c-.906.76-1.434 1.883-1.434 3.068 0 4.028 1.324 7.779 3.523 11.148-2.606 1.775-4.992 3.975-6.852 6.764-1.227 1.838-.73 4.322 1.109 5.547.684.455 1.453.672 2.215.672 1.293 0 2.562-.625 3.332-1.781 1.427-2.141 3.372-3.811 5.53-5.149 7.606 6.767 18.657 10.93 27.271 10.93h7.185c-4.555 3.248-8.467 7.381-11.581 12.165-6.593.814-11.732 6.387-11.732 13.197v2.639h-31.997v-140h164zm-196-56c0 2.209-1.791 4-4 4s-4-1.791-4-4 1.791-4 4-4 4 1.791 4 4zm107.199 0c0-.098.049-.179.056-.275-.942-.235-1.883-.647-2.63-1.395l-2.543-2.543c-1.145-1.143-1.578-3.189-.965-4.684.816-1.973 2.953-3.104 5.867-3.104h9.934c2.914 0 5.051 1.131 5.867 3.104.617 1.496.176 3.547-.969 4.689l-2.539 2.537c-.927.929-2.151 1.34-3.307 1.526.002.051.029.093.029.144v4.152c0 2.121 1.727 3.848 3.848 3.848 2.211 0 4 1.791 4 4s-1.789 4-4 4c-3.208 0-6.112-1.292-8.248-3.371-2.136 2.078-5.041 3.371-8.248 3.371-2.211 0-4-1.791-4-4s1.789-4 4-4c2.121 0 3.848-1.727 3.848-3.848zm17.008-18.734c-.699-2.096.434-4.361 2.527-5.061l12-4c2.113-.707 4.359.436 5.059 2.529.699 2.096-.434 4.361-2.527 5.061l-12 4c-.422.141-.848.207-1.266.207-1.676 0-3.234-1.061-3.793-2.736zm-44-6.532c.699-2.094 2.945-3.236 5.059-2.529l12 4c2.094.699 3.227 2.965 2.527 5.061-.559 1.676-2.117 2.736-3.793 2.736-.418 0-.844-.066-1.266-.207l-12-4c-2.093-.699-3.226-2.965-2.527-5.061zm147.793-126.734c0 2.209-1.791 4-4 4s-4-1.791-4-4 1.791-4 4-4 4 1.791 4 4zm-116.199 53.342c.668.439 1.433.658 2.199.658s1.531-.219 2.199-.658c2.637-1.735 15.801-10.858 15.801-20.03 0-7.156-5.5-12.979-12.262-12.979-2.031 0-3.988.521-5.738 1.506-1.75-.984-3.707-1.506-5.738-1.506-6.762.001-12.262 5.823-12.262 12.979 0 9.172 13.164 18.295 15.801 20.03zm24.199-17.342c0-2.209 1.789-4 4-4h28c2.211 0 4 1.791 4 4s-1.789 4-4 4h-28c-2.211 0-4-1.791-4-4zm-80 0c0-2.209 1.789-4 4-4h28c2.211 0 4 1.791 4 4s-1.789 4-4 4h-28c-2.211 0-4-1.791-4-4z" fill="url(#SVGID_1_)"/></g></svg>