<svg id="like" enable-background="new 0 0 300 300" height="512" viewBox="0 0 300 300" width="512" xmlns="http://www.w3.org/2000/svg" xmlns:xlink="http://www.w3.org/1999/xlink"><linearGradient id="SVGID_1_" gradientUnits="userSpaceOnUse" x1="28.341" x2="236.693" y1="240.439" y2="32.087"><stop offset="0" stop-color="#107eff"/><stop offset="1" stop-color="#8f16ff"/></linearGradient><g><path d="m210.484 167.172-2.828 2.828 2.828 2.828c1.562 1.562 1.562 4.094 0 5.656-.781.781-1.805 1.172-2.828 1.172s-2.047-.391-2.828-1.172l-2.828-2.828-2.828 2.828c-.781.781-1.805 1.172-2.828 1.172s-2.047-.391-2.828-1.172c-1.562-1.562-1.562-4.094 0-5.656l2.828-2.828-2.828-2.828c-1.562-1.562-1.562-4.094 0-5.656s4.094-1.562 5.656 0l2.828 2.828 2.828-2.828c1.562-1.562 4.094-1.562 5.656 0s1.563 4.093 0 5.656zm43.516 18.828h-4v-4c0-2.209-1.789-4-4-4s-4 1.791-4 4v4h-4c-2.211 0-4 1.791-4 4s1.789 4 4 4h4v4c0 2.209 1.789 4 4 4s4-1.791 4-4v-4h4c2.211 0 4-1.791 4-4s-1.789-4-4-4zm-112-120v48c0 2.209-1.789 4-4 4h-76c-2.211 0-4-1.791-4-4v-48c0-2.209 1.789-4 4-4h76c2.211 0 4 1.791 4 4zm-8 4h-68v40h68zm-16 172h-36c-2.211 0-4 1.791-4 4s1.789 4 4 4h36c2.211 0 4-1.791 4-4s-1.789-4-4-4zm144-179.391v58.781c0 6.953-5.656 12.609-12.609 12.609h-70.781c-6.953 0-12.609-5.656-12.609-12.609v-13.125l-4-2.4v135.84c0 11.191-9.105 20.295-20.297 20.295h-83.407c-11.192 0-20.297-9.104-20.297-20.295v-183.41c0-11.191 9.105-20.295 20.297-20.295h83.406c11.192 0 20.297 9.104 20.297 20.295v23.84l4-2.4v-17.126c0-6.953 5.656-12.609 12.609-12.609h70.781c6.954 0 12.61 5.656 12.61 12.609zm-108 38.456-6.059-3.635c-1.203-.723-1.941-2.026-1.941-3.43s.738-2.707 1.941-3.43l6.059-3.635v-28.64c0-6.779-5.516-12.295-12.297-12.295h-11.944c-1.145 6.794-7.028 12-14.142 12h-27.234c-7.113 0-12.997-5.206-14.142-12h-15.944c-6.781 0-12.297 5.516-12.297 12.295v183.41c0 6.779 5.516 12.295 12.297 12.295h83.406c6.781 0 12.297-5.516 12.297-12.295zm100-38.456c0-2.541-2.066-4.609-4.609-4.609h-70.781c-2.543 0-4.609 2.068-4.609 4.609v19.391c0 1.404-.738 2.707-1.941 3.43l-14.287 8.57 14.285 8.57c1.203.723 1.941 2.025 1.941 3.43v15.391c0 2.541 2.066 4.609 4.609 4.609h70.781c2.543 0 4.609-2.068 4.609-4.609v-58.782zm-12 24.782c0 14.562-23.16 30.215-25.801 31.951-.668.439-1.433.658-2.199.658s-1.531-.219-2.199-.658c-2.641-1.737-25.801-17.389-25.801-31.951 0-10.692 8.148-19.391 18.164-19.391 3.535 0 6.926 1.078 9.836 3.09 2.91-2.012 6.301-3.09 9.836-3.09 10.016 0 18.164 8.699 18.164 19.391zm-39.982 122.783c-2.362 0-4.276 1.915-4.276 4.276s1.915 4.276 4.276 4.276 4.276-1.915 4.276-4.276-1.915-4.276-4.276-4.276zm-140.018-80.174h28c2.211 0 4-1.791 4-4s-1.789-4-4-4h-28c-2.211 0-4 1.791-4 4s1.789 4 4 4zm0 12h12c2.211 0 4-1.791 4-4s-1.789-4-4-4h-12c-2.211 0-4 1.791-4 4s1.789 4 4 4zm80-16v12c0 2.209-1.789 4-4 4h-16c-2.211 0-4-1.791-4-4v-12c0-2.209 1.789-4 4-4h16c2.211 0 4 1.791 4 4zm-8 4h-8v4h8zm8 24v48c0 2.209-1.789 4-4 4h-76c-2.211 0-4-1.791-4-4v-48c0-2.209 1.789-4 4-4h76c2.211 0 4 1.791 4 4zm-8 4h-68v40h68zm-72 60h16c2.211 0 4-1.791 4-4s-1.789-4-4-4h-16c-2.211 0-4 1.791-4 4s1.789 4 4 4zm40 8c0-2.209-1.789-4-4-4h-36c-2.211 0-4 1.791-4 4s1.789 4 4 4h36c2.211 0 4-1.791 4-4zm40-12v12c0 2.209-1.789 4-4 4h-16c-2.211 0-4-1.791-4-4v-12c0-2.209 1.789-4 4-4h16c2.211 0 4 1.791 4 4zm-8 4h-8v4h8zm-36 0c2.211 0 4-1.791 4-4s-1.789-4-4-4h-8c-2.211 0-4 1.791-4 4s1.789 4 4 4z" fill="url(#SVGID_1_)"/></g></svg>