<svg id="man" enable-background="new 0 0 300 300" height="512" viewBox="0 0 300 300" width="512" xmlns="http://www.w3.org/2000/svg" xmlns:xlink="http://www.w3.org/1999/xlink"><linearGradient id="SVGID_1_" gradientUnits="userSpaceOnUse" x1="65.759" x2="256.483" y1="259.589" y2="68.866"><stop offset="0" stop-color="#107eff"/><stop offset="1" stop-color="#8f16ff"/></linearGradient><g><path d="m237.552 87.321c2.362 0 4.276 1.915 4.276 4.277s-1.915 4.276-4.276 4.276-4.276-1.915-4.276-4.276 1.914-4.277 4.276-4.277zm-177.724 10.149c-2.501 0-4.529 2.028-4.529 4.53 0 2.501 2.028 4.529 4.529 4.529s4.529-2.028 4.529-4.529c0-2.502-2.027-4.53-4.529-4.53zm-1.516 42.046c-1.562-1.562-4.094-1.562-5.656 0l-2.828 2.828-2.828-2.828c-1.562-1.562-4.094-1.562-5.656 0s-1.562 4.094 0 5.656l2.828 2.828-2.828 2.828c-1.562 1.562-1.562 4.094 0 5.656.781.781 1.805 1.172 2.828 1.172s2.047-.391 2.828-1.172l2.828-2.828 2.828 2.828c.781.781 1.805 1.172 2.828 1.172s2.047-.391 2.828-1.172c1.562-1.562 1.562-4.094 0-5.656l-2.828-2.828 2.828-2.828c1.563-1.563 1.563-4.094 0-5.656zm155.516-79.516c0-7.719 6.281-14 14-14s14 6.281 14 14-6.281 14-14 14-14-6.281-14-14zm8 0c0 3.309 2.691 6 6 6s6-2.691 6-6-2.691-6-6-6-6 2.691-6 6zm-60.516 38.47c2.209 0 4-1.791 4-4s-1.791-4-4-4-4 1.791-4 4 1.791 4 4 4zm-40 0c2.209 0 4-1.791 4-4s-1.791-4-4-4-4 1.791-4 4 1.791 4 4 4zm12 32.001h16c2.211 0 4-1.791 4-4s-1.789-4-4-4h-16c-2.211 0-4 1.791-4 4s1.79 4 4 4zm-35.484 95.529c-2.211 0-4 1.791-4 4v28c0 2.209 1.789 4 4 4s4-1.791 4-4v-28c0-2.209-1.789-4-4-4zm162-10c0 27.57-22.43 50-50 50s-50-22.43-50-50c0-.996.092-1.969.149-2.951l-3.138 3.585c-.766.871-1.863 1.365-3.012 1.365-.117 0-.238-.006-.355-.016-1.273-.113-2.418-.83-3.074-1.926l-8.57-14.284-8.57 14.284c-.656 1.096-1.801 1.812-3.074 1.926-.117.01-.238.016-.355.016-1.148 0-2.246-.494-3.012-1.365l-26.806-30.634h-2.19c-13.23 0-23.992 10.764-23.992 23.994v48.006c0 2.209-1.789 4-4 4s-4-1.791-4-4v-48.006c-.001-17.642 14.351-31.994 31.991-31.994h2.797l9.211-6.141v-6.503c-7.551-5.216-12.516-13.922-12.516-23.774v-24.156c-4.887-1.9-8.52-6.312-9.285-11.65l-.918-6.428c-.586-4.119.602-8.312 3.258-11.506 1.785-2.143 4.129-3.719 6.73-4.582-.059-2.295-.055-5.447-.051-9.826.013-21.743 17.716-39.434 39.462-39.434h9.344c21.758 0 39.461 17.701 39.461 39.461v9.73c2.688.846 5.109 2.449 6.945 4.65 2.656 3.193 3.844 7.387 3.258 11.504l-.922 6.432c-.762 5.334-4.395 9.748-9.281 11.65v24.154c0 9.389-4.524 17.721-11.484 23v7.277l6.167 4.111c8.34-6.231 18.646-9.97 29.833-9.97 27.569.001 49.999 22.431 49.999 50.001zm-158.012-105.623c1.996.254 3.496 1.955 3.496 3.969v19.246l1.699-.34c5.969-1.195 10.301-6.479 10.301-12.566 0-5.633 4.582-10.215 10.215-10.215h27.566c5.633 0 10.219 4.582 10.219 10.215 0 6.088 4.332 11.371 10.301 12.566l1.699.34v-19.246c0-2.014 1.5-3.715 3.496-3.969 3.027-.383 5.438-2.74 5.863-5.732l.922-6.432c.273-1.906-.254-3.773-1.484-5.254-1.23-1.475-3.039-2.367-4.961-2.445-2.141-.086-3.836-1.85-3.836-3.996v-13.057c0-17.348-14.113-31.461-31.461-31.461h-9.344c-17.336 0-31.449 14.104-31.461 31.439-.008 8.596.082 11.248.133 12.059.359 1.361-.023 2.83-1.039 3.848-.754.754-1.766 1.162-2.793 1.176-1.875.111-3.629.996-4.832 2.438-1.23 1.48-1.758 3.348-1.484 5.258l.918 6.426c.426 2.991 2.84 5.35 5.867 5.733zm24.383 52.092h30.223c11.463 0 20.783-9.282 20.874-20.722l-3.253-.651c-9.695-1.939-16.73-10.523-16.73-20.41 0-1.221-.996-2.215-2.219-2.215h-27.566c-1.223 0-2.215.994-2.215 2.215 0 9.887-7.035 18.471-16.73 20.41l-3.253.651c.09 11.44 9.41 20.722 20.869 20.722zm10.301 32.64-22.75-16.25-5.91 3.939 21.383 24.436zm27.255 1.472c2.395-5.661 5.831-10.767 10.025-15.14l-3.874-2.582-22.75 16.25 7.277 12.125zm88.073 19.419c0-23.158-18.84-42-42-42s-42 18.842-42 42 18.84 42 42 42 42-18.842 42-42zm-61.867-8.973c-.293-1.109-.098-2.291.539-3.246l16-24c1.484-2.227 5.172-2.227 6.656 0l16 24c.637.955.832 2.137.539 3.246-.297 1.107-1.051 2.037-2.078 2.551l-16 8c-.562.281-1.176.422-1.789.422s-1.227-.141-1.789-.422l-16-8c-1.027-.514-1.781-1.443-2.078-2.551zm9.707-2.578 10.16 5.078 10.16-5.078-10.16-15.238zm28.988 10.723c1.219 1.217 1.52 3.076.75 4.617l-16 32c-.68 1.355-2.062 2.211-3.578 2.211s-2.898-.855-3.578-2.211l-16-32c-.77-1.541-.469-3.4.75-4.617 1.223-1.223 3.078-1.516 4.617-.75l14.211 7.105 14.211-7.105c1.543-.76 3.399-.469 4.617.75zm-11.773 11.771-5.266 2.635c-1.125.562-2.453.562-3.578 0l-5.266-2.635 7.055 14.113z" fill="url(#SVGID_1_)"/></g></svg>