<svg id="nft-coin" enable-background="new 0 0 300 300" height="512" viewBox="0 0 300 300" width="512" xmlns="http://www.w3.org/2000/svg" xmlns:xlink="http://www.w3.org/1999/xlink"><linearGradient id="SVGID_1_" gradientUnits="userSpaceOnUse" x1="89.345" x2="255.867" y1="241.002" y2="74.48"><stop offset="0" stop-color="#00e7df"/><stop offset="1" stop-color="#4d54fe"/></linearGradient><g><path d="m74 91.999c6.617 0 12-5.383 12-12s-5.383-12-12-12-12 5.383-12 12 5.383 12 12 12zm0-16c2.205 0 4 1.795 4 4s-1.795 4-4 4-4-1.795-4-4 1.795-4 4-4zm169.936-3.125c0-2.362 1.915-4.277 4.276-4.277s4.277 1.915 4.277 4.277-1.915 4.276-4.277 4.276-4.276-1.914-4.276-4.276zm-171.447 132c0 2.362-1.915 4.276-4.277 4.276s-4.276-1.915-4.276-4.276c0-2.362 1.915-4.277 4.276-4.277s4.277 1.915 4.277 4.277zm93.511-84.875c-2.209 0-4-1.791-4-4v-24c0-2.209 1.791-4 4-4h12c2.209 0 4 1.791 4 4s-1.791 4-4 4h-8v4h8c2.209 0 4 1.791 4 4s-1.791 4-4 4h-8v8c0 2.209-1.791 4-4 4zm-8-28v24c0 2.209-1.791 4-4 4s-4-1.791-4-4v-6.344l-8-8v14.344c0 2.209-1.791 4-4 4s-4-1.791-4-4v-24c0-1.617.975-3.076 2.469-3.695 1.494-.621 3.213-.281 4.359.867l9.172 9.172v-6.344c0-2.209 1.791-4 4-4s4 1.791 4 4zm28 0c0-2.209 1.791-4 4-4h16c2.209 0 4 1.791 4 4s-1.791 4-4 4h-4v20c0 2.209-1.791 4-4 4s-4-1.791-4-4v-20h-4c-2.209 0-4-1.791-4-4zm87.859 157.053c-.486 1.779-2.098 2.949-3.857 2.949-.348 0-.701-.047-1.055-.143l-43.088-11.752-59.074 11.814c-.467.094-.947.102-1.408.029l-70.539-11.137c-5.123-.809-8.838-5.161-8.838-10.342 0-5.773 4.697-10.471 10.471-10.471h37.529v-.613c0-10.689 8.697-19.387 19.387-19.387h22.221c3.502-5.82 14.494-19.453 38.959-15.959 12.475 1.781 18.938 4.367 24.639 6.646 7.125 2.852 13.279 5.312 30.795 5.312 2.209 0 4 1.791 4 4s-1.791 4-4 4c-19.057 0-26.201-2.857-33.766-5.883-5.543-2.219-11.275-4.512-22.801-6.158-24.35-3.48-31.438 12.855-31.73 13.551-.619 1.492-2.088 2.49-3.703 2.49h-24.613c-6.279 0-11.387 5.107-11.387 11.387v.613h39.23l19.283-7.715c2.057-.814 4.379.18 5.201 2.229.82 2.053-.178 4.379-2.229 5.201l-20 8c-.473.188-.977.285-1.486.285h-85.529c-1.363 0-2.471 1.107-2.471 2.471 0 1.223.877 2.25 2.086 2.441l69.832 11.025 59.297-11.859c.605-.127 1.238-.105 1.838.062l44 12c2.131.584 3.386 2.783 2.806 4.914zm-139.236-69.102 70.541-11.137c5.121-.811 8.836-5.162 8.836-10.344 0-5.444-4.191-9.879-9.508-10.373 13.372-10.444 21.508-26.557 21.508-44.097 0-30.879-25.121-56-56-56s-56 25.121-56 56c0 5.006.685 9.945 1.979 14.71-6.276-4.775-16.018-8.738-30.545-6.669-12.475 1.781-18.938 4.367-24.639 6.646-7.125 2.852-13.279 5.312-30.795 5.312-2.209 0-4 1.791-4 4s1.791 4 4 4c19.057 0 26.201-2.857 33.766-5.883 5.543-2.219 11.275-4.512 22.801-6.158 24.371-3.486 31.439 12.854 31.719 13.527.609 1.518 2.08 2.514 3.715 2.514h24.613c6.279 0 11.387 5.107 11.387 11.387v.613h-39.23l-19.283-7.715c-2.061-.818-4.379.18-5.201 2.229-.82 2.053.178 4.379 2.229 5.201l20 8c.473.188.977.285 1.486.285h85.529c1.363 0 2.471 1.107 2.471 2.471 0 1.223-.877 2.25-2.084 2.441l-69.834 11.025-59.297-11.859c-.615-.129-1.242-.104-1.838.062l-44 12c-2.131.582-3.387 2.781-2.807 4.912.486 1.779 2.098 2.949 3.857 2.949.348 0 .703-.047 1.055-.143l43.088-11.752 59.074 11.814c.466.095.942.106 1.407.032zm11.99-51.951h-18.158c-4.211-7.274-6.455-15.527-6.455-24 0-26.467 21.533-48 48-48s48 21.533 48 48c0 19.162-11.301 36.355-28.828 44h-23.172v-.613c0-10.69-8.697-19.387-19.387-19.387zm91.387 16c0-2.209 1.791-4 4-4h4v-4c0-2.209 1.791-4 4-4s4 1.791 4 4v4h4c2.209 0 4 1.791 4 4s-1.791 4-4 4h-4v4c0 2.209-1.791 4-4 4s-4-1.791-4-4v-4h-4c-2.209 0-4-1.791-4-4z" fill="url(#SVGID_1_)"/></g></svg>