<svg id="nft-network" enable-background="new 0 0 300 300" height="512" viewBox="0 0 300 300" width="512" xmlns="http://www.w3.org/2000/svg" xmlns:xlink="http://www.w3.org/1999/xlink"><linearGradient id="SVGID_1_" gradientUnits="userSpaceOnUse" x1="49.595" x2="226.557" y1="232.121" y2="55.158"><stop offset="0" stop-color="#107eff"/><stop offset="1" stop-color="#8f16ff"/></linearGradient><g><path d="m52.437 154.529c-2.501 0-4.53-2.028-4.53-4.529 0-2.502 2.028-4.53 4.53-4.53s4.53 2.028 4.53 4.53c-.001 2.501-2.029 4.529-4.53 4.529zm.529-104.529c0-2.502-2.028-4.53-4.53-4.53s-4.53 2.028-4.53 4.53c0 2.501 2.028 4.529 4.53 4.529s4.53-2.028 4.53-4.529zm199.127 106 2.828-2.828c1.562-1.562 1.562-4.094 0-5.656s-4.094-1.562-5.656 0l-2.828 2.828-2.828-2.828c-1.562-1.562-4.094-1.562-5.656 0s-1.562 4.094 0 5.656l2.827 2.828-2.828 2.828c-1.562 1.562-1.562 4.094 0 5.656.781.781 1.805 1.172 2.828 1.172s2.047-.391 2.828-1.172l2.828-2.828 2.828 2.828c.781.781 1.805 1.172 2.828 1.172s2.047-.391 2.828-1.172c1.562-1.562 1.562-4.094 0-5.656zm-173.656-28c0 2.209-1.791 4-4 4h-16c-2.209 0-4-1.791-4-4v-40.737c-4.646-1.656-8-6.055-8-11.263 0-6.617 5.383-12 12-12s12 5.383 12 12c0 5.208-3.354 9.606-8 11.263v36.737h12c2.209 0 4 1.791 4 4zm132 0c0-2.209 1.791-4 4-4h12v-36.737c-4.646-1.656-8-6.055-8-11.263 0-6.617 5.383-12 12-12s12 5.383 12 12c0 5.208-3.354 9.606-8 11.263v40.737c0 2.209-1.791 4-4 4h-16c-2.209 0-4-1.791-4-4zm-124-68c0-6.617 5.383-12 12-12s12 5.383 12 12c0 5.208-3.354 9.606-8 11.263v28.737c0 2.209-1.791 4-4 4s-4-1.791-4-4v-28.737c-4.646-1.657-8-6.055-8-11.263zm8 0c0 2.205 1.795 4 4 4s4-1.795 4-4-1.795-4-4-4-4 1.795-4 4zm108 0c0 5.259-3.422 9.689-8.14 11.306.042.234.14.448.14.694v28c0 2.209-1.791 4-4 4s-4-1.791-4-4v-28c0-.246.098-.46.14-.694-4.718-1.617-8.14-6.047-8.14-11.306 0-6.617 5.383-12 12-12s12 5.383 12 12zm-8 0c0-2.205-1.795-4-4-4s-4 1.795-4 4 1.795 4 4 4 4-1.795 4-4zm-64-24c0-6.617 5.383-12 12-12s12 5.383 12 12c0 5.259-3.422 9.689-8.14 11.306.042.234.14.448.14.694v36c0 2.209-1.791 4-4 4s-4-1.791-4-4v-36c0-.246.098-.46.14-.694-4.718-1.617-8.14-6.047-8.14-11.306zm-52 136c0 2.209-1.791 4-4 4h-12v36.737c4.646 1.656 8 6.055 8 11.263 0 6.617-5.383 12-12 12s-12-5.383-12-12c0-5.208 3.354-9.606 8-11.263v-40.737c0-2.209 1.791-4 4-4h16c2.209 0 4 1.791 4 4zm32 68c0 6.617-5.383 12-12 12s-12-5.383-12-12c0-5.208 3.354-9.606 8-11.263v-24.737c0-2.209 1.791-4 4-4s4 1.791 4 4v24.737c4.646 1.657 8 6.055 8 11.263zm-8 0c0-2.205-1.795-4-4-4s-4 1.795-4 4 1.795 4 4 4 4-1.795 4-4zm140-16c0 6.617-5.383 12-12 12s-12-5.383-12-12c0-5.208 3.354-9.606 8-11.263v-36.737h-12c-2.209 0-4-1.791-4-4s1.791-4 4-4h16c2.209 0 4 1.791 4 4v40.737c4.646 1.657 8 6.055 8 11.263zm-40 16c0 6.617-5.383 12-12 12s-12-5.383-12-12c0-5.259 3.422-9.69 8.14-11.307-.042-.234-.14-.447-.14-.693v-28c0-2.209 1.791-4 4-4s4 1.791 4 4v28c0 .246-.098.46-.14.693 4.717 1.617 8.14 6.048 8.14 11.307zm-8 0c0-2.205-1.795-4-4-4s-4 1.795-4 4 1.795 4 4 4 4-1.795 4-4zm-40 24c0 6.617-5.383 12-12 12s-12-5.383-12-12c0-5.259 3.422-9.69 8.14-11.307-.042-.234-.14-.447-.14-.693v-32c0-2.209 1.791-4 4-4s4 1.791 4 4v32c0 .246-.098.46-.14.693 4.717 1.617 8.14 6.048 8.14 11.307zm-68-112c0-30.879 25.121-56 56-56s56 25.121 56 56-25.121 56-56 56-56-25.121-56-56zm8 0c0 26.467 21.533 48 48 48s48-21.533 48-48-21.533-48-48-48-48 21.533-48 48zm44 16c2.209 0 4-1.791 4-4v-8h8c2.209 0 4-1.791 4-4s-1.791-4-4-4h-8v-4h8c2.209 0 4-1.791 4-4s-1.791-4-4-4h-12c-2.209 0-4 1.791-4 4v24c0 2.209 1.791 4 4 4zm-24-4v-14.344l8 8v6.344c0 2.209 1.791 4 4 4s4-1.791 4-4v-24c0-2.209-1.791-4-4-4s-4 1.791-4 4v6.344l-9.172-9.172c-1.146-1.148-2.865-1.488-4.359-.867-1.494.619-2.469 2.078-2.469 3.695v24c0 2.209 1.791 4 4 4s4-1.791 4-4zm48-20h4v20c0 2.209 1.791 4 4 4s4-1.791 4-4v-20h4c2.209 0 4-1.791 4-4s-1.791-4-4-4h-16c-2.209 0-4 1.791-4 4s1.791 4 4 4z" fill="url(#SVGID_1_)"/></g></svg>