<svg id="nft-symbol" enable-background="new 0 0 300 300" height="512" viewBox="0 0 300 300" width="512" xmlns="http://www.w3.org/2000/svg" xmlns:xlink="http://www.w3.org/1999/xlink"><linearGradient id="SVGID_1_" gradientUnits="userSpaceOnUse" x1="68.594" x2="213.25" y1="217.078" y2="72.422"><stop offset="0" stop-color="#107eff"/><stop offset="1" stop-color="#8f16ff"/></linearGradient><g><path d="m81.516 52.656 2.828-2.828-2.828-2.828c-1.562-1.562-1.562-4.094 0-5.656s4.094-1.562 5.656 0l2.828 2.828 2.828-2.828c1.562-1.562 4.094-1.562 5.656 0s1.562 4.094 0 5.656l-2.828 2.828 2.828 2.828c1.562 1.562 1.562 4.094 0 5.656-.781.781-1.805 1.172-2.828 1.172s-2.047-.391-2.828-1.172l-2.828-2.828-2.828 2.828c-.781.781-1.805 1.172-2.828 1.172s-2.047-.391-2.828-1.172c-1.563-1.562-1.563-4.093 0-5.656zm160.484 50.172v102c0 1.426-.762 2.746-1.996 3.461l-88 51c-.617.359-1.312.539-2.004.539s-1.387-.18-2.004-.539l-88-51c-1.234-.715-1.996-2.035-1.996-3.461v-102c0-1.426.762-2.746 1.996-3.461l88-51c1.234-.719 2.773-.719 4.008 0l88 51c1.234.715 1.996 2.035 1.996 3.461zm-92-32.379-72 41.686v83.387l72 41.686 72-41.686v-83.387zm-36 31.379c-2.211 0-4 1.791-4 4v67.352l-16.207-48.617c-.621-1.863-2.527-2.979-4.434-2.684-1.938.314-3.359 1.988-3.359 3.949v60c0 2.209 1.789 4 4 4s4-1.791 4-4v-35.352l16.207 48.617c.551 1.652 2.094 2.734 3.789 2.734.215 0 .43-.018.645-.051 1.938-.314 3.359-1.988 3.359-3.949v-92c0-2.208-1.789-3.999-4-3.999zm33.93-21.949-24 14.527c-1.199.725-1.93 2.021-1.93 3.422v112c0 2.209 1.789 4 4 4s4-1.791 4-4v-52h24c2.211 0 4-1.791 4-4s-1.789-4-4-4h-24v-49.746l20.035-12.127 21.93 12.803c1.91 1.115 4.359.471 5.469-1.438 1.113-1.908.473-4.357-1.438-5.473l-23.98-14.002c-1.262-.738-2.832-.722-4.086.034zm35.355 27.291 10.715 6.122v84.536c0 2.209 1.789 4 4 4s4-1.791 4-4v-79.965l6.016 3.437c.625.357 1.309.527 1.98.527 1.391 0 2.738-.723 3.477-2.016 1.098-1.918.43-4.361-1.488-5.457l-24.73-14.131c-1.922-1.102-4.363-.432-5.457 1.488-1.099 1.92-.431 4.363 1.487 5.459z" fill="url(#SVGID_1_)"/></g></svg>