<svg id="no-nft" enable-background="new 0 0 300 300" height="512" viewBox="0 0 300 300" width="512" xmlns="http://www.w3.org/2000/svg" xmlns:xlink="http://www.w3.org/1999/xlink"><linearGradient id="SVGID_1_" gradientUnits="userSpaceOnUse" x1="71.538" x2="224.201" y1="225.902" y2="73.239"><stop offset="0" stop-color="#107eff"/><stop offset="1" stop-color="#8f16ff"/></linearGradient><g><path d="m44 57.701c-2.209 0-4-1.791-4-4s1.791-4 4-4h4v-4c0-2.209 1.791-4 4-4s4 1.791 4 4v4h4c2.209 0 4 1.791 4 4s-1.791 4-4 4h-4v4c0 2.209-1.791 4-4 4s-4-1.791-4-4v-4zm46.213-10.849c2.362 0 4.277-1.915 4.277-4.276 0-2.362-1.915-4.277-4.277-4.277s-4.276 1.915-4.276 4.277c-.001 2.362 1.914 4.276 4.276 4.276zm156 199.447c-2.362 0-4.276 1.915-4.276 4.277s1.915 4.276 4.276 4.276 4.277-1.915 4.277-4.276c-.001-2.362-1.916-4.277-4.277-4.277zm-38.213-92.598c0 30.879-25.121 56-56 56s-56-25.121-56-56 25.121-56 56-56 56 25.121 56 56zm-8 0c0-26.467-21.531-48-48-48-26.467 0-48 21.533-48 48s21.533 48 48 48c26.469 0 48-21.534 48-48zm-40-8c2.211 0 4-1.791 4-4s-1.789-4-4-4h-12c-2.211 0-4 1.791-4 4v24c0 2.209 1.789 4 4 4s4-1.791 4-4v-8h8c2.211 0 4-1.791 4-4s-1.789-4-4-4h-8v-4zm-24-8c-2.209 0-4 1.791-4 4v6.344l-9.172-9.172c-1.146-1.148-2.867-1.488-4.359-.867-1.494.619-2.469 2.078-2.469 3.695v24c0 2.209 1.791 4 4 4s4-1.791 4-4v-14.344l8 8v6.344c0 2.209 1.791 4 4 4s4-1.791 4-4v-24c0-2.209-1.791-4-4-4zm36 0c-2.211 0-4 1.791-4 4s1.789 4 4 4h4v20c0 2.209 1.789 4 4 4s4-1.791 4-4v-20h4c2.211 0 4-1.791 4-4s-1.789-4-4-4zm76 16c0 52.934-43.066 96-96 96-24.352 0-47.6-9.186-65.459-25.863-.793-.74-1.25-1.771-1.27-2.855-.018-1.084.404-2.131 1.172-2.896l13.809-13.809-2.828-2.828-13.564 13.564c-.797.797-1.877 1.221-3.02 1.168-1.125-.055-2.176-.58-2.893-1.449-14.152-17.148-21.947-38.821-21.947-61.032 0-52.934 43.066-96 96-96 22.211 0 43.887 7.795 61.031 21.947.867.717 1.395 1.768 1.449 2.893.055 1.127-.371 2.223-1.168 3.02l-11.566 11.564 2.828 2.828 11.809-11.809c.766-.77 1.949-1.193 2.895-1.172 1.086.02 2.117.477 2.855 1.27 16.679 17.857 25.867 41.103 25.867 65.459zm-8 0c0-20.939-7.41-40.99-20.953-56.906l-11.645 11.643c-1.562 1.562-4.094 1.562-5.656 0l-8.484-8.484c-.75-.75-1.172-1.768-1.172-2.828s.422-2.078 1.172-2.828l11.203-11.201c-15.117-11.248-33.582-17.396-52.465-17.396-48.523 0-88 39.477-88 88 0 18.885 6.148 37.348 17.395 52.465l13.201-13.201c1.562-1.562 4.094-1.562 5.656 0l8.484 8.484c1.562 1.562 1.562 4.094 0 5.656l-13.643 13.643c15.92 13.541 35.969 20.953 56.906 20.953 48.524 0 88.001-39.477 88.001-88zm20 0c0 59.551-48.449 108-108 108s-108-48.449-108-108 48.449-108 108-108 108 48.449 108 108zm-8 0c0-55.141-44.859-100-100-100s-100 44.859-100 100 44.859 100 100 100 100-44.86 100-100z" fill="url(#SVGID_1_)"/></g></svg>