<svg id="photo" enable-background="new 0 0 300 300" height="512" viewBox="0 0 300 300" width="512" xmlns="http://www.w3.org/2000/svg" xmlns:xlink="http://www.w3.org/1999/xlink"><linearGradient id="SVGID_1_" gradientUnits="userSpaceOnUse" x1="86.114" x2="251.423" y1="240.248" y2="74.939"><stop offset="0" stop-color="#107eff"/><stop offset="1" stop-color="#8f16ff"/></linearGradient><g><path d="m248.828 198.042v-124.042c0-1.061-.422-2.078-1.172-2.828l-32-32c-.75-.75-1.768-1.172-2.828-1.172h-112c-6.617 0-12 5.383-12 12v188c0 6.617 5.383 12 12 12h61.864c3.216 7.058 10.298 12 18.546 12h67.18c11.254 0 20.41-9.156 20.41-20.41v-23.18c0-11.113-8.939-20.144-20-20.368zm-148 43.958c-2.205 0-4-1.795-4-4v-188c0-2.205 1.795-4 4-4h108v28c0 2.209 1.791 4 4 4h28v120h-59.59c-11.254 0-20.41 9.156-20.41 20.41v23.18c0 .14.039.27.042.41zm160-.41c0 6.844-5.566 12.41-12.41 12.41h-67.18c-6.844 0-12.41-5.566-12.41-12.41v-23.18c0-6.844 5.566-12.41 12.41-12.41h67.18c6.844 0 12.41 5.566 12.41 12.41zm-48-19.59v4h8c2.209 0 4 1.791 4 4s-1.791 4-4 4h-8v8c0 2.209-1.791 4-4 4s-4-1.791-4-4v-24c0-2.209 1.791-4 4-4h12c2.209 0 4 1.791 4 4s-1.791 4-4 4zm-12-4v24c0 2.209-1.791 4-4 4s-4-1.791-4-4v-6.344l-8-8v14.344c0 2.209-1.791 4-4 4s-4-1.791-4-4v-24c0-1.617.975-3.076 2.469-3.695 1.494-.621 3.213-.277 4.359.867l9.172 9.172v-6.344c0-2.209 1.791-4 4-4s4 1.791 4 4zm52 0c0 2.209-1.791 4-4 4h-4v20c0 2.209-1.791 4-4 4s-4-1.791-4-4v-20h-4c-2.209 0-4-1.791-4-4s1.791-4 4-4h16c2.209 0 4 1.791 4 4zm-203.516-46.828-2.828 2.828 2.828 2.828c1.562 1.562 1.562 4.094 0 5.656-.781.781-1.805 1.172-2.828 1.172s-2.047-.391-2.828-1.172l-2.828-2.828-2.828 2.828c-.781.781-1.805 1.172-2.828 1.172s-2.047-.391-2.828-1.172c-1.562-1.562-1.562-4.094 0-5.656l2.828-2.828-2.828-2.828c-1.562-1.562-1.562-4.094 0-5.656s4.094-1.562 5.656 0l2.828 2.828 2.828-2.828c1.562-1.562 4.094-1.562 5.656 0s1.563 4.093 0 5.656zm23.516-9.172c0 2.209-1.791 4-4 4s-4-1.791-4-4 1.791-4 4-4 4 1.791 4 4zm-12-44c0 2.209-1.791 4-4 4s-4-1.791-4-4 1.791-4 4-4 4 1.791 4 4zm152 48v-48c0-2.209-1.791-4-4-4h-12.925l-3.462-13.027c-.465-1.752-2.053-2.973-3.865-2.973h-39.496c-1.812 0-3.4 1.221-3.865 2.973l-3.462 13.027h-12.925c-2.209 0-4 1.791-4 4v48c0 2.209 1.791 4 4 4h80c2.209 0 4-1.791 4-4zm-8-4h-72v-40h72zm-36-4c8.822 0 16-7.178 16-16s-7.178-16-16-16-16 7.178-16 16 7.178 16 16 16zm0-24c4.412 0 8 3.588 8 8s-3.588 8-8 8-8-3.588-8-8 3.588-8 8-8z" fill="url(#SVGID_1_)"/></g></svg>