<svg id="server" enable-background="new 0 0 300 300" height="512" viewBox="0 0 300 300" width="512" xmlns="http://www.w3.org/2000/svg" xmlns:xlink="http://www.w3.org/1999/xlink"><linearGradient id="SVGID_1_" gradientUnits="userSpaceOnUse" x1="62.784" x2="256.772" y1="251.864" y2="57.876"><stop offset="0" stop-color="#107eff"/><stop offset="1" stop-color="#8f16ff"/></linearGradient><g><path d="m241.24 48-2.828 2.828 2.828 2.828c1.562 1.562 1.562 4.094 0 5.656-.781.781-1.805 1.172-2.828 1.172s-2.047-.391-2.828-1.172l-2.828-2.828-2.828 2.828c-.781.781-1.805 1.172-2.828 1.172s-2.047-.391-2.828-1.172c-1.562-1.562-1.562-4.094 0-5.656l2.828-2.828-2.829-2.828c-1.562-1.562-1.562-4.094 0-5.656s4.094-1.562 5.656 0l2.828 2.828 2.828-2.828c1.562-1.562 4.094-1.562 5.656 0s1.563 4.094.001 5.656zm9.728 179.427c-2.362 0-4.276 1.915-4.276 4.277s1.915 4.276 4.276 4.276 4.277-1.915 4.277-4.276c0-2.363-1.915-4.277-4.277-4.277zm-42.213-120.599v116c0 2.209-1.789 4-4 4h-124c-2.211 0-4-1.791-4-4v-116c0-2.209 1.789-4 4-4h124c2.211 0 4 1.791 4 4zm-8 4h-116v108h116zm-108 87.975v-67.949c0-6.631 5.395-12.025 12.027-12.025h75.945c6.633 0 12.027 5.395 12.027 12.025v67.949c0 6.631-5.395 12.025-12.027 12.025h-75.945c-6.632 0-12.027-5.394-12.027-12.025zm8 0c0 2.219 1.805 4.025 4.027 4.025h75.945c2.223 0 4.027-1.807 4.027-4.025v-67.949c0-2.219-1.805-4.025-4.027-4.025h-75.945c-2.223 0-4.027 1.807-4.027 4.025zm36-15.975c2.211 0 4-1.791 4-4v-8h8c2.211 0 4-1.791 4-4s-1.789-4-4-4h-8v-4h8c2.211 0 4-1.791 4-4s-1.789-4-4-4h-12c-2.211 0-4 1.791-4 4v24c0 2.209 1.789 4 4 4zm-28 0c2.211 0 4-1.791 4-4v-14.344l8 8v6.344c0 2.209 1.789 4 4 4s4-1.791 4-4v-24c0-2.209-1.789-4-4-4s-4 1.791-4 4v6.344l-9.172-9.172c-1.141-1.145-2.859-1.482-4.359-.867-1.496.619-2.469 2.078-2.469 3.695v24c0 2.209 1.789 4 4 4zm52-24h4v20c0 2.209 1.789 4 4 4s4-1.791 4-4v-20h4c2.211 0 4-1.791 4-4s-1.789-4-4-4h-16c-2.211 0-4 1.791-4 4s1.789 4 4 4zm72-32v4h4c2.211 0 4 1.791 4 4s-1.789 4-4 4h-4v4h4c2.211 0 4 1.791 4 4s-1.789 4-4 4h-4v4h4c2.211 0 4 1.791 4 4s-1.789 4-4 4h-4v4h4c2.211 0 4 1.791 4 4s-1.789 4-4 4h-4v4h4c2.211 0 4 1.791 4 4s-1.789 4-4 4h-4v4h4c2.211 0 4 1.791 4 4s-1.789 4-4 4h-4v4h4c2.211 0 4 1.791 4 4s-1.789 4-4 4h-4v24.664c0 8.457-6.879 15.336-15.336 15.336h-28.664v4c0 2.209-1.789 4-4 4s-4-1.791-4-4v-4h-4v4c0 2.209-1.789 4-4 4s-4-1.791-4-4v-4h-4v4c0 2.209-1.789 4-4 4s-4-1.791-4-4v-4h-4v4c0 2.209-1.789 4-4 4s-4-1.791-4-4v-4h-4v4c0 2.209-1.789 4-4 4s-4-1.791-4-4v-4h-4v4c0 2.209-1.789 4-4 4s-4-1.791-4-4v-4h-4v4c0 2.209-1.789 4-4 4s-4-1.791-4-4v-4h-4v4c0 2.209-1.789 4-4 4s-4-1.791-4-4v-4h-28.664c-8.457 0-15.336-6.879-15.336-15.336v-24.664h-4c-2.211 0-4-1.791-4-4s1.789-4 4-4h4v-4h-4c-2.211 0-4-1.791-4-4s1.789-4 4-4h4v-4h-4c-2.211 0-4-1.791-4-4s1.789-4 4-4h4v-4h-4c-2.211 0-4-1.791-4-4s1.789-4 4-4h4v-4h-4c-2.211 0-4-1.791-4-4s1.789-4 4-4h4v-4h-4c-2.211 0-4-1.791-4-4s1.789-4 4-4h4v-4h-4c-2.211 0-4-1.791-4-4s1.789-4 4-4h4v-4h-4c-2.211 0-4-1.791-4-4s1.789-4 4-4h4v-24.664c0-8.457 6.879-15.336 15.336-15.336h28.664v-4c0-2.209 1.789-4 4-4s4 1.791 4 4v4h4v-4c0-2.209 1.789-4 4-4s4 1.791 4 4v4h4v-4c0-2.209 1.789-4 4-4s4 1.791 4 4v4h4v-4c0-2.209 1.789-4 4-4s4 1.791 4 4v4h4v-4c0-2.209 1.789-4 4-4s4 1.791 4 4v4h4v-4c0-2.209 1.789-4 4-4s4 1.791 4 4v4h4v-4c0-2.209 1.789-4 4-4s4 1.791 4 4v4h4v-4c0-2.209 1.789-4 4-4s4 1.791 4 4v4h28.664c8.457 0 15.336 6.879 15.336 15.336v24.664h4c2.211 0 4 1.791 4 4s-1.789 4-4 4zm-8-32.664c0-4.045-3.289-7.336-7.336-7.336h-149.328c-4.047 0-7.336 3.291-7.336 7.336v141.328c0 4.045 3.289 7.336 7.336 7.336h149.328c4.047 0 7.336-3.291 7.336-7.336zm-8-3.336c-2.209 0-4 1.791-4 4s1.791 4 4 4 4-1.791 4-4-1.79-4-4-4zm-148 0c-2.209 0-4 1.791-4 4s1.791 4 4 4 4-1.791 4-4-1.79-4-4-4zm148 140c-2.209 0-4 1.791-4 4s1.791 4 4 4 4-1.791 4-4-1.79-4-4-4zm-148 0c-2.209 0-4 1.791-4 4s1.791 4 4 4 4-1.791 4-4-1.79-4-4-4z" fill="url(#SVGID_1_)"/></g></svg>