<svg id="stats" enable-background="new 0 0 300 300" height="512" viewBox="0 0 300 300" width="512" xmlns="http://www.w3.org/2000/svg" xmlns:xlink="http://www.w3.org/1999/xlink"><linearGradient id="SVGID_1_" gradientUnits="userSpaceOnUse" x1="53.796" x2="249.106" y1="286.281" y2="90.971"><stop offset="0" stop-color="#107eff"/><stop offset="1" stop-color="#8f16ff"/></linearGradient><g><path d="m266 256.828h-8v-108c0-2.209-1.791-4-4-4h-16c-2.209 0-4 1.791-4 4v108h-8v-84c0-2.209-1.791-4-4-4h-16c-2.209 0-4 1.791-4 4v84h-8v-36c0-2.209-1.791-4-4-4h-16c-2.209 0-4 1.791-4 4v36h-8v-28c0-2.209-1.791-4-4-4h-16c-2.209 0-4 1.791-4 4v28h-8v-12c0-2.209-1.791-4-4-4h-16c-2.209 0-4 1.791-4 4v12h-8v-12c0-2.209-1.791-4-4-4h-16c-2.209 0-4 1.791-4 4v12h-8v-12c0-2.209-1.791-4-4-4h-16c-2.209 0-4 1.791-4 4v12h-8c-2.209 0-4 1.791-4 4s1.791 4 4 4h232c2.209 0 4-1.791 4-4s-1.791-4-4-4zm-24-104h8v104h-8zm-96 80h8v24h-8zm-32 16h8v8h-8zm-32 0h8v8h-8zm-32 0h8v8h-8zm-8-12c5.208 0 9.606-3.354 11.263-8h53.474c1.656 4.646 6.055 8 11.263 8 6.617 0 12-5.383 12-12 0-1.108-.2-2.161-.482-3.181l21.533-15.072c1.965 1.406 4.354 2.253 6.949 2.253 5.208 0 9.606-3.354 11.263-8h5.474c1.656 4.646 6.055 8 11.263 8 6.617 0 12-5.383 12-12 0-3.935-1.929-7.402-4.864-9.592l9.371-30.459c6.378-.272 11.493-5.505 11.493-11.949 0-.012-.004-.024-.004-.036l34.755-12.412c2.202 2.692 5.507 4.448 9.249 4.448 6.617 0 12-5.383 12-12s-5.383-12-12-12-12 5.383-12 12c0 .012.004.024.004.036l-34.755 12.412c-2.202-2.692-5.508-4.448-9.249-4.448-6.617 0-12 5.383-12 12 0 3.935 1.929 7.402 4.864 9.592l-9.371 30.459c-4.983.213-9.155 3.458-10.756 7.949h-5.474c-1.656-4.646-6.055-8-11.263-8-6.617 0-12 5.383-12 12 0 1.108.2 2.161.482 3.18l-21.534 15.073c-1.965-1.405-4.354-2.253-6.948-2.253-5.208 0-9.606 3.354-11.263 8h-53.474c-1.656-4.646-6.055-8-11.263-8-6.617 0-12 5.383-12 12s5.383 12 12 12zm216-116c2.205 0 4 1.795 4 4s-1.795 4-4 4-4-1.795-4-4 1.795-4 4-4zm-56 20c2.205 0 4 1.795 4 4s-1.795 4-4 4-4-1.795-4-4 1.795-4 4-4zm-16 52c2.205 0 4 1.795 4 4s-1.795 4-4 4-4-1.795-4-4 1.795-4 4-4zm-28 0c2.205 0 4 1.795 4 4s-1.795 4-4 4-4-1.795-4-4 1.795-4 4-4zm-40 28c2.205 0 4 1.795 4 4s-1.795 4-4 4-4-1.795-4-4 1.795-4 4-4zm-76 0c2.205 0 4 1.795 4 4s-1.795 4-4 4-4-1.795-4-4 1.795-4 4-4zm113.47-130c0-2.502 2.028-4.53 4.53-4.53s4.53 2.028 4.53 4.53c0 2.501-2.028 4.529-4.53 4.529s-4.53-2.027-4.53-4.529zm2.046-43.172 2.828-2.828-2.828-2.828c-1.562-1.562-1.562-4.094 0-5.656s4.094-1.562 5.656 0l2.828 2.828 2.828-2.828c1.562-1.562 4.094-1.562 5.656 0s1.562 4.094 0 5.656l-2.828 2.828 2.828 2.828c1.562 1.562 1.562 4.094 0 5.656-.781.781-1.805 1.172-2.828 1.172s-2.047-.391-2.828-1.172l-2.828-2.828-2.828 2.828c-.781.781-1.805 1.172-2.828 1.172s-2.047-.391-2.828-1.172c-1.563-1.562-1.563-4.093 0-5.656zm-71.516 149.172c30.879 0 56-25.121 56-56s-25.121-56-56-56-56 25.121-56 56 25.121 56 56 56zm0-104c26.467 0 48 21.533 48 48s-21.533 48-48 48-48-21.533-48-48 21.533-48 48-48zm-8 60v-24c0-2.209 1.791-4 4-4h12c2.209 0 4 1.791 4 4s-1.791 4-4 4h-8v4h8c2.209 0 4 1.791 4 4s-1.791 4-4 4h-8v8c0 2.209-1.791 4-4 4s-4-1.791-4-4zm-24 4c-2.209 0-4-1.791-4-4v-24c0-1.617.975-3.076 2.469-3.695 1.496-.623 3.213-.279 4.359.867l9.172 9.172v-6.344c0-2.209 1.791-4 4-4s4 1.791 4 4v24c0 2.209-1.791 4-4 4s-4-1.791-4-4v-6.344l-8-8v14.344c0 2.209-1.791 4-4 4zm48-28c0-2.209 1.791-4 4-4h16c2.209 0 4 1.791 4 4s-1.791 4-4 4h-4v20c0 2.209-1.791 4-4 4s-4-1.791-4-4v-20h-4c-2.209 0-4-1.791-4-4zm112-44c6.617 0 12-5.383 12-12s-5.383-12-12-12-12 5.383-12 12 5.383 12 12 12zm0-16c2.205 0 4 1.795 4 4s-1.795 4-4 4-4-1.795-4-4 1.795-4 4-4z" fill="url(#SVGID_1_)"/></g></svg>