<svg id="study" enable-background="new 0 0 300 300" height="512" viewBox="0 0 300 300" width="512" xmlns="http://www.w3.org/2000/svg" xmlns:xlink="http://www.w3.org/1999/xlink"><linearGradient id="SVGID_1_" gradientUnits="userSpaceOnUse" x1="84.996" x2="250.546" y1="231.22" y2="65.67"><stop offset="0" stop-color="#107eff"/><stop offset="1" stop-color="#8f16ff"/></linearGradient><g><path d="m234.371 156.915-2.83 2.829 2.83 2.829c1.562 1.561 1.562 4.094 0 5.656-.781.781-1.805 1.172-2.828 1.172s-2.047-.391-2.828-1.172l-2.83-2.83-2.83 2.83c-.781.781-1.805 1.172-2.828 1.172s-2.047-.391-2.828-1.172c-1.562-1.562-1.562-4.096 0-5.656l2.83-2.829-2.83-2.829c-1.562-1.561-1.562-4.094 0-5.656s4.094-1.562 5.656 0l2.83 2.83 2.83-2.83c1.562-1.562 4.094-1.562 5.656 0s1.563 4.095 0 5.656zm28.336 87.256c1.785 1.785 2.773 4.16 2.773 6.688s-.984 4.902-2.773 6.689l-6.422 6.42c-1.781 1.787-4.156 2.771-6.688 2.771-2.523 0-4.902-.984-6.688-2.771l-54.504-54.504c-2.247-2.247-3.105-5.351-2.615-8.269l-24.816-24.816c-13.551 10.539-30.519 16.882-48.975 16.882-44.113 0-80-35.889-80-80s35.887-80 80-80 80 35.889 80 80c0 4.089-.406 8.075-1 12h11.344l18.828-18.828c1.562-1.562 4.094-1.562 5.656 0s1.562 4.094 0 5.656l-20 20c-.75.75-1.766 1.172-2.828 1.172h-14.633c-2.766 10.688-7.661 20.504-14.251 28.977l24.817 24.814c2.92-.49 6.025.369 8.27 2.611zm-150.707-58.91c32.755 0 60.42-22.009 69.115-52h-8.36c-8.423 25.516-32.454 44-60.755 44-35.289 0-64-28.711-64-64s28.711-64 64-64 64 28.711 64 64c0 4.105-.426 8.108-1.167 12h8.083c.66-3.912 1.084-7.903 1.084-12 0-39.701-32.301-72-72-72s-72 32.299-72 72 32.301 72 72 72zm44-56c0-2.209 1.789-4 4-4h6.673c.849-3.871 1.327-7.878 1.327-12 0-30.879-25.121-56-56-56s-56 25.121-56 56 25.121 56 56 56c23.826 0 44.169-14.983 52.244-36h-4.244c-2.211 0-4-1.791-4-4zm101.48 121.597c0-.225-.059-.658-.43-1.029l-54.504-54.508c-.57-.568-1.496-.562-2.066.002l-6.418 6.42c-.57.568-.57 1.496 0 2.064l54.504 54.504c.754.756 1.332.738 2.059.002l6.426-6.422c.371-.372.429-.806.429-1.033zm-11.544-132.722c0 2.362 1.915 4.276 4.276 4.276s4.277-1.915 4.277-4.276c0-2.362-1.915-4.277-4.277-4.277s-4.276 1.915-4.276 4.277zm-41.936-30.875c0-5.514 4.484-10 10-10h44c5.516 0 10 4.486 10 10s-4.484 10-10 10h-44c-5.516 0-10-4.487-10-10zm8 0c0 1.104.898 2 2 2h44c1.102 0 2-.896 2-2s-.898-2-2-2h-44c-1.102 0-2 .896-2 2zm-8-24c0-5.514 4.484-10 10-10h20c5.516 0 10 4.486 10 10s-4.484 10-10 10h-20c-5.516 0-10-4.487-10-10zm8 0c0 1.104.898 2 2 2h20c1.102 0 2-.896 2-2s-.898-2-2-2h-20c-1.102 0-2 .896-2 2zm-92 42c2.211 0 4-1.791 4-4s-1.789-4-4-4h-12c-2.211 0-4 1.791-4 4v24c0 2.209 1.789 4 4 4s4-1.791 4-4v-8h8c2.211 0 4-1.791 4-4s-1.789-4-4-4h-8v-4zm-24-8c-2.211 0-4 1.791-4 4v6.344l-9.172-9.172c-1.145-1.145-2.859-1.482-4.359-.867-1.496.619-2.469 2.078-2.469 3.695v24c0 2.209 1.789 4 4 4s4-1.791 4-4v-14.344l8 8v6.344c0 2.209 1.789 4 4 4s4-1.791 4-4v-24c0-2.209-1.789-4-4-4zm52 0h-16c-2.211 0-4 1.791-4 4s1.789 4 4 4h4v20c0 2.209 1.789 4 4 4s4-1.791 4-4v-20h4c2.211 0 4-1.791 4-4s-1.789-4-4-4zm-28 140c0 6.617-5.383 12-12 12s-12-5.383-12-12 5.383-12 12-12 12 5.383 12 12zm-8 0c0-2.205-1.793-4-4-4s-4 1.795-4 4 1.793 4 4 4 4-1.795 4-4z" fill="url(#SVGID_1_)"/></g></svg>