<svg id="tokens" enable-background="new 0 0 300 300" height="512" viewBox="0 0 300 300" width="512" xmlns="http://www.w3.org/2000/svg" xmlns:xlink="http://www.w3.org/1999/xlink"><linearGradient id="SVGID_1_" gradientUnits="userSpaceOnUse" x1="79.851" x2="236.665" y1="217.082" y2="60.268"><stop offset="0" stop-color="#00e7df"/><stop offset="1" stop-color="#4d54fe"/></linearGradient><g><path d="m261.656 206.751c1.562 1.562 1.562 4.094 0 5.656-.781.781-1.805 1.172-2.828 1.172s-2.047-.391-2.828-1.172l-2.828-2.828-2.828 2.828c-.781.781-1.805 1.172-2.828 1.172s-2.047-.391-2.828-1.172c-1.562-1.562-1.562-4.094 0-5.656l2.828-2.828-2.828-2.828c-1.562-1.562-1.562-4.094 0-5.656s4.094-1.562 5.656 0l2.828 2.828 2.828-2.828c1.562-1.562 4.094-1.562 5.656 0s1.562 4.094 0 5.656l-2.828 2.828zm-12.743-38.378c0 2.362 1.915 4.276 4.276 4.276s4.276-1.915 4.276-4.276-1.915-4.276-4.276-4.276-4.276 1.914-4.276 4.276zm-183.723 23.724c-2.362 0-4.276 1.915-4.276 4.276s1.915 4.276 4.276 4.276c2.362 0 4.276-1.915 4.276-4.276s-1.915-4.276-4.276-4.276zm92-143.448c2.362 0 4.276-1.915 4.276-4.276s-1.915-4.276-4.276-4.276-4.276 1.915-4.276 4.276 1.914 4.276 4.276 4.276zm27.439 165.258c.719 1.238.727 2.766.012 4.008s-2.035 2.008-3.469 2.008h-56c-1.434 0-2.754-.766-3.469-2.008s-.707-2.77.012-4.008l28-48c1.438-2.457 5.477-2.457 6.914 0zm-10.422-1.984-21.035-36.061-21.035 36.061zm-70.91-67.026c-1.023 0-2.047-.391-2.828-1.172l-31.113-31.113c-.75-.75-1.172-1.768-1.172-2.828s.422-2.078 1.172-2.828l31.113-31.111c1.562-1.562 4.094-1.562 5.656 0l31.113 31.111c.75.75 1.172 1.768 1.172 2.828s-.422 2.078-1.172 2.828l-31.113 31.113c-.781.782-1.805 1.172-2.828 1.172zm0-9.656 25.457-25.457-25.457-25.455-25.457 25.455zm111.462 27.61c4.24 8.971 6.5 18.834 6.53 28.841.059 18.162-6.961 35.26-19.766 48.145-12.801 12.883-29.855 20.01-48.02 20.066-.074 0-.145 0-.219 0-18.082 0-35.094-7.014-47.926-19.766-12.883-12.803-20.012-29.857-20.066-48.021-.02-6.155.828-12.218 2.427-18.095-28.87-6.964-50.448-32.898-50.548-63.892-.113-36.393 29.402-66.094 65.793-66.207h.199c22.943 0 44.318 12.175 56.233 31.5 1.783-2.508 3.735-4.917 5.947-7.143 10.543-10.609 24.59-16.479 39.547-16.525 30.73-.047 56.078 24.945 56.176 55.824.088 27.626-19.971 50.649-46.307 55.273zm-57.692-54.946c.039 12.82 5.07 24.859 14.164 33.896 9.059 9 21.066 13.951 33.828 13.951h.156c12.82-.041 24.859-5.07 33.898-14.164 9.039-9.096 13.992-21.164 13.953-33.986-.039-12.82-5.07-24.857-14.164-33.896-9.059-9-21.07-13.951-33.832-13.951-.051 0-.105 0-.156 0-12.82.041-24.859 5.07-33.895 14.164-9.038 9.096-13.991 21.164-13.952 33.986zm-53.899 60.018h.188c22.551-.071 42.929-13.21 52.399-33.578-4.338-8.021-6.659-17.038-6.688-26.416-.027-8.664 1.958-17.008 5.635-24.58-9.9-19.144-29.929-31.426-51.537-31.426-.059 0-.117 0-.176 0-31.977.1-57.914 26.201-57.816 58.182.101 31.917 26.101 57.818 57.995 57.818zm103.06-4.223c-.333.007-.655.052-.989.053-.059 0-.121 0-.18 0-14.891 0-28.898-5.775-39.469-16.277-1.734-1.724-3.293-3.571-4.769-5.471-11.532 20.711-33.403 33.843-57.442 33.918-.066 0-.141 0-.211 0-2.555 0-5.064-.181-7.544-.465-1.536 5.391-2.351 10.965-2.331 16.633.051 16.027 6.336 31.076 17.703 42.373 11.324 11.25 26.336 17.439 42.289 17.439h.195c16.023-.051 31.074-6.338 42.371-17.707 11.297-11.367 17.488-26.453 17.438-42.479-.029-9.802-2.485-19.439-7.061-28.017zm-32.232-53.777c-.715-1.238-.715-2.762 0-4l13.855-24c.715-1.238 2.035-2 3.465-2h27.711c1.43 0 2.75.762 3.465 2l13.855 24c.715 1.238.715 2.762 0 4l-13.855 24c-.715 1.238-2.035 2-3.465 2h-27.711c-1.43 0-2.75-.762-3.465-2z" fill="url(#SVGID_1_)"/></g></svg>