<svg id="virtual" enable-background="new 0 0 512 512" height="512" viewBox="0 0 512 512" width="512" xmlns="http://www.w3.org/2000/svg" xmlns:xlink="http://www.w3.org/1999/xlink"><linearGradient id="SVGID_1_" gradientTransform="matrix(1.707 0 0 -1.707 34.627 975.453)" gradientUnits="userSpaceOnUse" x1="39.533" x2="217.946" y1="326.163" y2="504.576"><stop offset="0" stop-color="#107eff"/><stop offset="1" stop-color="#8f16ff"/></linearGradient><g><path d="m102.009 147.011-4.83 4.83c-1.333 1.333-3.081 2-4.826 2s-3.494-.667-4.826-2c-2.666-2.666-2.666-6.991 0-9.653l4.83-4.828-4.83-4.828c-2.666-2.664-2.666-6.987 0-9.653s6.987-2.666 9.653 0l4.83 4.83 4.83-4.83c2.666-2.666 6.987-2.666 9.653 0s2.666 6.991 0 9.653l-4.83 4.828 4.83 4.828c2.666 2.664 2.666 6.987 0 9.653-1.333 1.333-3.081 2-4.826 2s-3.494-.667-4.826-2zm317.638 248.253h-6.827v-6.827c0-3.77-3.053-6.827-6.827-6.827s-6.827 3.057-6.827 6.827v6.827h-6.827c-3.773 0-6.827 3.057-6.827 6.827s3.053 6.827 6.827 6.827h6.827v6.827c0 3.77 3.053 6.827 6.827 6.827s6.827-3.057 6.827-6.827v-6.827h6.827c3.773 0 6.827-3.057 6.827-6.827s-3.053-6.827-6.827-6.827zm-300.373-187.051c0-11.293 9.187-20.48 20.48-20.48s20.48 9.187 20.48 20.48-9.187 20.48-20.48 20.48-20.48-9.187-20.48-20.48zm13.653 0c0 3.763 3.06 6.827 6.827 6.827s6.827-3.063 6.827-6.827c0-3.763-3.06-6.827-6.827-6.827s-6.827 3.064-6.827 6.827zm229.055 233.129c-4.031 0-7.298 3.268-7.298 7.299s3.268 7.298 7.298 7.298 7.299-3.268 7.299-7.298c.001-4.032-3.268-7.299-7.299-7.299zm31.877-297.982-47.3 81.92c-1.22 2.113-3.473 3.413-5.914 3.413h-23.4v82.016c11.375.507 20.48 9.262 20.48 20.038v.693c0 5.076-2.082 9.667-5.405 13.211 3.325 3.642 5.405 8.439 5.405 13.749 0 7.274-3.837 13.631-9.566 17.266 1.695 2.98 2.739 6.374 2.739 10.04 0 7.274-3.837 13.631-9.566 17.266 1.695 2.98 2.739 6.374 2.739 10.04 0 6.03-2.668 11.402-6.827 15.154v8.74c0 13.174-10.72 23.893-23.893 23.893-13.174 0-23.893-10.72-23.893-23.893v-3.413h-60.587c-11.633 0-22.494-4.943-30.906-13.996h-72.345c-3.773 0-6.827-3.057-6.827-6.827s3.053-6.827 6.827-6.827h68.267v-6.484c0-3.77 3.053-6.827 6.827-6.827s6.827 3.057 6.827 6.827v10.185c5.886 6.577 13.365 10.295 21.333 10.295h41.364c-.765-2.145-1.258-4.422-1.258-6.827 0-3.666 1.046-7.06 2.741-10.04-5.729-3.633-9.568-9.993-9.568-17.266 0-5.263 2.051-10.022 5.327-13.653-3.275-3.632-5.327-8.39-5.327-13.653 0-3.337.877-6.443 2.299-9.228-4.523 1.468-9.779 2.401-15.952 2.401-3.773 0-6.827-3.057-6.827-6.827s3.053-6.827 6.827-6.827c22.134 0 27.607-15.654 27.66-15.814 1.06-3.176 4.287-5.084 7.567-4.581 3.308.536 5.733 3.393 5.733 6.74v13.653c0 3.763 3.06 6.827 6.827 6.827h6.827v-43.194c0-3.386-.66-4.383-.713-4.463 0 0-.821-.27-2.826-.027l-53.62 6.711c-13.72 1.717-31.56 10.97-37.673 23.491-1.147 2.343-3.526 3.83-6.134 3.83h-76.528c-3.773 0-6.827-3.057-6.827-6.827s3.053-6.827 6.827-6.827h72.547c9.708-15.177 30.307-25.24 46.094-27.213l45.199-5.656v-55.876h-23.4c-2.441 0-4.693-1.3-5.914-3.413l-47.3-81.92c-1.22-2.113-1.22-4.714 0-6.827l47.3-81.92c1.22-2.113 3.473-3.413 5.914-3.413h94.587c2.441 0 4.693 1.3 5.914 3.413l47.3 81.92c1.219 2.113 1.219 4.714-.002 6.827zm-132.565 208.485c-3.103.642-5.487 3.267-5.487 6.555 0 3.763 3.06 6.827 6.827 6.827h54.613c3.767 0 6.827-3.063 6.827-6.827 0-3.763-3.06-6.827-6.827-6.827h-20.48c0 3.77-3.053 6.827-6.827 6.827h-13.653c-5.92 0-11.252-2.528-14.993-6.555zm49.126 27.035h-47.787c-3.767 0-6.827 3.063-6.827 6.827 0 3.763 3.06 6.827 6.827 6.827h47.787c3.767 0 6.827-3.063 6.827-6.827s-3.06-6.827-6.827-6.827zm-40.96 40.96h34.133c3.767 0 6.827-3.063 6.827-6.827 0-3.763-3.06-6.827-6.827-6.827h-34.133c-3.767 0-6.827 3.063-6.827 6.827.001 3.764 3.061 6.827 6.827 6.827zm46.773-95.573h-19.466v13.653h19.466c4.32 0 7.84-2.906 7.84-6.48v-.693c.001-3.574-3.52-6.48-7.84-6.48zm63.833-184.32-43.36-75.093h-86.707l-43.36 75.093 43.36 75.093h86.707zm-45.326-64.854 35.473 61.44c1.22 2.113 1.22 4.714 0 6.827l-35.473 61.44c-1.22 2.113-3.473 3.413-5.914 3.413h-70.946c-2.441 0-4.693-1.3-5.914-3.413l-35.473-61.44c-1.22-2.113-1.22-4.714 0-6.827l35.473-61.44c1.22-2.113 3.473-3.413 5.914-3.413h70.946c2.441 0 4.694 1.3 5.914 3.413zm21.68 64.854-31.534-54.613h-63.066l-31.534 54.613 31.534 54.613h63.066z" fill="url(#SVGID_1_)"/></g></svg>