<svg id="wallet" enable-background="new 0 0 300 300" height="512" viewBox="0 0 300 300" width="512" xmlns="http://www.w3.org/2000/svg" xmlns:xlink="http://www.w3.org/1999/xlink"><linearGradient id="SVGID_1_" gradientUnits="userSpaceOnUse" x1="57.531" x2="251.736" y1="261.341" y2="67.137"><stop offset="0" stop-color="#00e7df"/><stop offset="1" stop-color="#4d54fe"/></linearGradient><g><path d="m129.172 233.701c0 2.209-1.789 4-4 4h-8c-2.211 0-4-1.791-4-4s1.789-4 4-4h8c2.211 0 4 1.791 4 4zm-24-4h-8c-2.211 0-4 1.791-4 4s1.789 4 4 4h8c2.211 0 4-1.791 4-4s-1.789-4-4-4zm40 0h-8c-2.211 0-4 1.791-4 4s1.789 4 4 4h8c2.211 0 4-1.791 4-4s-1.789-4-4-4zm20 0h-8c-2.211 0-4 1.791-4 4s1.789 4 4 4h8c2.211 0 4-1.791 4-4s-1.789-4-4-4zm-100 0h-8c-2.211 0-4 1.791-4 4s1.789 4 4 4h8c2.211 0 4-1.791 4-4s-1.789-4-4-4zm20 0h-8c-2.211 0-4 1.791-4 4s1.789 4 4 4h8c2.211 0 4-1.791 4-4s-1.789-4-4-4zm120 0h-8c-2.211 0-4 1.791-4 4s1.789 4 4 4h8c2.211 0 4-1.791 4-4s-1.789-4-4-4zm-20 0h-8c-2.211 0-4 1.791-4 4s1.789 4 4 4h8c2.211 0 4-1.791 4-4s-1.789-4-4-4zm40 0h-8c-2.211 0-4 1.791-4 4s1.789 4 4 4h8c2.211 0 4-1.791 4-4s-1.789-4-4-4zm24-58.119v24.238c0 4.806-3.448 8.81-8 9.691v30.504c0 11.957-9.73 21.686-21.688 21.686h-156.625c-11.957 0-21.688-9.729-21.688-21.686v-116.629c0-11.957 9.73-21.686 21.688-21.686h156.625c11.957 0 21.688 9.729 21.688 21.686v42.504c4.551.882 8 4.886 8 9.692zm-16 64.433v-30.314h-30.121c-5.449 0-9.879-4.432-9.879-9.881v-24.238c0-5.449 4.43-9.881 9.879-9.881h30.121v-16c0-8.822-7.176-16-16-16h-152c-2.211 0-4-1.791-4-4s1.789-4 4-4h152c6.15 0 11.749 2.345 16 6.162v-8.476c0-7.547-6.141-13.686-13.688-13.686h-156.625c-7.547 0-13.688 6.139-13.688 13.686v116.629c0 7.547 6.141 13.686 13.688 13.686h156.625c7.547-.001 13.688-6.14 13.688-13.687zm8-64.433c0-1.037-.844-1.881-1.879-1.881h-36.242c-1.035 0-1.879.844-1.879 1.881v24.238c0 1.037.844 1.881 1.879 1.881h36.242c1.035 0 1.879-.844 1.879-1.881zm-26 6.119c-3.314 0-6 2.686-6 6s2.686 6 6 6 6-2.686 6-6-2.686-6-6-6zm39.656-92 2.828-2.828c1.562-1.562 1.562-4.094 0-5.656s-4.094-1.562-5.656 0l-2.828 2.828-2.828-2.828c-1.562-1.562-4.094-1.562-5.656 0s-1.562 4.094 0 5.656l2.828 2.828-2.828 2.828c-1.562 1.562-1.562 4.094 0 5.656.781.781 1.805 1.172 2.828 1.172s2.047-.391 2.828-1.172l2.828-2.828 2.828 2.828c.781.781 1.805 1.172 2.828 1.172s2.047-.391 2.828-1.172c1.562-1.562 1.562-4.094 0-5.656zm-25.46-29.998c2.501 0 4.529-2.028 4.529-4.529 0-2.502-2.028-4.53-4.529-4.53s-4.53 2.028-4.53 4.53 2.028 4.529 4.53 4.529zm-84.196 117.998c2.211 0 4-1.791 4-4s-1.789-4-4-4h-12c-2.211 0-4 1.791-4 4v24c0 2.209 1.789 4 4 4s4-1.791 4-4v-8h8c2.211 0 4-1.791 4-4s-1.789-4-4-4h-8v-4zm-28 20c0 2.209 1.789 4 4 4s4-1.791 4-4v-24c0-2.209-1.789-4-4-4s-4 1.791-4 4v6.344l-9.172-9.172c-1.141-1.145-2.859-1.482-4.359-.867-1.496.619-2.469 2.078-2.469 3.695v24c0 2.209 1.789 4 4 4s4-1.791 4-4v-14.344l8 8zm56-20c2.211 0 4-1.791 4-4s-1.789-4-4-4h-16c-2.211 0-4 1.791-4 4s1.789 4 4 4h4v20c0 2.209 1.789 4 4 4s4-1.791 4-4v-20zm-112 8c0-8.822 7.176-16 16-16s16 7.178 16 16-7.176 16-16 16-16-7.178-16-16zm32-100h4v4c0 2.209 1.789 4 4 4s4-1.791 4-4v-4h4c2.211 0 4-1.791 4-4s-1.789-4-4-4h-4v-4c0-2.209-1.789-4-4-4s-4 1.791-4 4v4h-4c-2.211 0-4 1.791-4 4s1.789 4 4 4zm62.213-30.849c2.362 0 4.277-1.915 4.277-4.276 0-2.362-1.915-4.277-4.277-4.277s-4.276 1.915-4.276 4.277c-.001 2.362 1.914 4.276 4.276 4.276z" fill="url(#SVGID_1_)"/></g></svg>