<svg id="win" enable-background="new 0 0 300 300" height="512" viewBox="0 0 300 300" width="512" xmlns="http://www.w3.org/2000/svg" xmlns:xlink="http://www.w3.org/1999/xlink"><linearGradient id="SVGID_1_" gradientUnits="userSpaceOnUse" x1="66.586" x2="229.896" y1="243.696" y2="80.387"><stop offset="0" stop-color="#107eff"/><stop offset="1" stop-color="#8f16ff"/></linearGradient><g><path d="m137.853 142c30.879 0 56-25.121 56-56s-25.121-56-56-56-56 25.121-56 56 25.121 56 56 56zm0-104c26.469 0 48 21.533 48 48s-21.531 48-48 48-48-21.533-48-48 21.531-48 48-48zm-8 60v-24c0-2.209 1.789-4 4-4h12c2.211 0 4 1.791 4 4s-1.789 4-4 4h-8v4h8c2.211 0 4 1.791 4 4s-1.789 4-4 4h-8v8c0 2.209-1.789 4-4 4s-4-1.791-4-4zm-24 4c-2.211 0-4-1.791-4-4v-24c0-1.617.973-3.076 2.469-3.695 1.496-.615 3.215-.277 4.359.867l9.172 9.172v-6.344c0-2.209 1.789-4 4-4s4 1.791 4 4v24c0 2.209-1.789 4-4 4s-4-1.791-4-4v-6.344l-8-8v14.344c0 2.209-1.789 4-4 4zm48-28c0-2.209 1.789-4 4-4h16c2.211 0 4 1.791 4 4s-1.789 4-4 4h-4v20c0 2.209-1.789 4-4 4s-4-1.791-4-4v-20h-4c-2.211 0-4-1.791-4-4zm64.484 153.172-2.828 2.828 2.828 2.828c1.562 1.562 1.562 4.094 0 5.656-.781.781-1.805 1.172-2.828 1.172s-2.047-.391-2.828-1.172l-2.828-2.828-2.828 2.828c-.781.781-1.805 1.172-2.828 1.172s-2.047-.391-2.828-1.172c-1.562-1.562-1.562-4.094 0-5.656l2.828-2.828-2.828-2.828c-1.562-1.562-1.562-4.094 0-5.656s4.094-1.562 5.656 0l2.828 2.828 2.828-2.828c1.562-1.562 4.094-1.562 5.656 0s1.563 4.093 0 5.656zm35.81 11.278c0 2.362-1.915 4.276-4.276 4.276s-4.276-1.915-4.276-4.276 1.915-4.276 4.276-4.276 4.276 1.914 4.276 4.276zm-196.294-32.45c-6.617 0-12 5.383-12 12s5.383 12 12 12 12-5.383 12-12-5.383-12-12-12zm0 16c-2.207 0-4-1.795-4-4s1.793-4 4-4 4 1.795 4 4-1.793 4-4 4zm144-80c0-6.617-5.383-12-12-12s-12 5.383-12 12v42.555l-19.937 17.445h-.062v-32c0-.031-.017-.057-.018-.088 4.838-3.654 8.018-9.396 8.018-15.912 0-2.209-1.789-4-4-4h-30.707c-7.328 0-13.293 5.963-13.293 13.293v25.951c0 4.832 1.728 9.225 4.505 12.756h-.568l-19.938-17.445v-42.555c0-6.617-5.383-12-12-12s-12 5.383-12 12v48c0 3.463 1.496 6.754 4.078 9.014l28.082 24.926 3.855 42.422c.203 2.203 2.121 3.799 4.348 3.623 2.199-.201 3.82-2.146 3.621-4.346l-4-44c-.094-1.014-.566-1.955-1.328-2.631l-29.289-25.998c-.867-.76-1.367-1.855-1.367-3.01v-36h8v32.369c0 1.154.496 2.25 1.367 3.01l22.434 19.631c.727.639 1.664.99 2.633.99h39.133c.969 0 1.906-.352 2.633-.99l22.434-19.631c.871-.76 1.367-1.855 1.367-3.01v-32.369h8v36c0 1.154-.5 2.25-1.391 3.029l-29.266 25.979c-.762.676-1.234 1.617-1.328 2.631l-4 44c-.199 2.199 1.422 4.145 3.621 4.346.125.01.246.016.367.016 2.047 0 3.789-1.561 3.98-3.639l3.855-42.422 28.059-24.906c2.605-2.279 4.102-5.57 4.102-9.033zm-116 4v-4c0-2.205 1.793-4 4-4s4 1.795 4 4v4zm52.754 56c-7.031 0-12.754-5.723-12.754-12.756v-15.244h24v28zm47.246-56v-4c0-2.205 1.793-4 4-4s4 1.795 4 4v4zm40-60c0 2.209-1.789 4-4 4h-16c-2.211 0-4-1.791-4-4s1.789-4 4-4h16c2.211 0 4 1.791 4 4zm-22.828-9.172c-1.562-1.562-1.562-4.094 0-5.656l6-6c1.562-1.562 4.094-1.562 5.656 0s1.562 4.094 0 5.656l-6 6c-.781.781-1.805 1.172-2.828 1.172s-2.047-.391-2.828-1.172zm6 30-6-6c-1.562-1.562-1.562-4.094 0-5.656s4.094-1.562 5.656 0l6 6c1.562 1.562 1.562 4.094 0 5.656-.781.781-1.805 1.172-2.828 1.172s-2.047-.391-2.828-1.172zm-135.172-20.828c0 2.209-1.789 4-4 4h-16c-2.211 0-4-1.791-4-4s1.789-4 4-4h16c2.211 0 4 1.791 4 4zm-1.172-14.828c1.562 1.562 1.562 4.094 0 5.656-.781.781-1.805 1.172-2.828 1.172s-2.047-.391-2.828-1.172l-6-6c-1.562-1.562-1.562-4.094 0-5.656s4.094-1.562 5.656 0zm0 24c1.562 1.562 1.562 4.094 0 5.656l-6 6c-.781.781-1.805 1.172-2.828 1.172s-2.047-.391-2.828-1.172c-1.562-1.562-1.562-4.094 0-5.656l6-6c1.562-1.563 4.094-1.563 5.656 0z" fill="url(#SVGID_1_)"/></g></svg>