<svg id="woman" enable-background="new 0 0 300 300" height="512" viewBox="0 0 300 300" width="512" xmlns="http://www.w3.org/2000/svg" xmlns:xlink="http://www.w3.org/1999/xlink"><linearGradient id="SVGID_1_" gradientUnits="userSpaceOnUse" x1="72.535" x2="255.451" y1="244.365" y2="61.449"><stop offset="0" stop-color="#107eff"/><stop offset="1" stop-color="#8f16ff"/></linearGradient><g><path d="m227.275 43.597c0-2.362 1.915-4.277 4.277-4.277s4.276 1.915 4.276 4.277-1.915 4.276-4.276 4.276-4.277-1.914-4.277-4.276zm-149.447 69.873c-2.501 0-4.53 2.028-4.53 4.53 0 2.501 2.028 4.529 4.53 4.529s4.53-2.028 4.53-4.529c0-2.502-2.028-4.53-4.53-4.53zm-9.516 54.046c-1.562-1.562-4.094-1.562-5.656 0l-2.828 2.828-2.828-2.828c-1.562-1.562-4.094-1.562-5.656 0s-1.562 4.094 0 5.656l2.828 2.828-2.828 2.828c-1.562 1.562-1.562 4.094 0 5.656.781.781 1.805 1.172 2.828 1.172s2.047-.391 2.828-1.172l2.828-2.828 2.828 2.828c.781.781 1.805 1.172 2.828 1.172s2.047-.391 2.828-1.172c1.562-1.562 1.562-4.094 0-5.656l-2.828-2.828 2.828-2.828c1.563-1.563 1.563-4.094 0-5.656zm143.516-79.516c0-7.719 6.281-14 14-14s14 6.281 14 14-6.281 14-14 14-14-6.281-14-14zm8 0c0 3.309 2.691 6 6 6s6-2.691 6-6-2.691-6-6-6-6 2.691-6 6zm-60 26c2.209 0 4-1.791 4-4s-1.791-4-4-4-4 1.791-4 4 1.791 4 4 4zm-40 0c2.209 0 4-1.791 4-4s-1.791-4-4-4-4 1.791-4 4 1.791 4 4 4zm20 26c4.23 0 8.195-2.295 10.348-5.986.719-1.238.723-2.766.012-4.008-.715-1.24-2.035-2.006-3.469-2.006h-13.781c-1.434 0-2.754.766-3.469 2.006-.711 1.242-.707 2.77.012 4.008 2.152 3.691 6.117 5.986 10.347 5.986zm-28 78c-2.211 0-4 1.791-4 4v32c0 2.209 1.789 4 4 4s4-1.791 4-4v-32c0-2.209-1.789-4-4-4zm138-6c0 27.57-22.43 50-50 50s-50-22.43-50-50c0-.488.059-.962.073-1.447l-10.074-7.554-13.601 10.2c-.699.525-1.543.801-2.398.801-.375 0-.754-.053-1.121-.16-1.211-.354-2.184-1.256-2.625-2.436l-10.878-29.007c-8.672 1.552-15.638 8.359-17.376 17.374v54.229c0 2.209-1.789 4-4 4s-4-1.791-4-4v-54.596c0-.234.02-.469.062-.699.669-3.769 2.063-7.23 3.938-10.345v-106.936c0-23.944 19.481-43.424 43.422-43.424h17.156c23.941 0 43.422 19.48 43.422 43.424v81.278c2.612-.423 5.271-.702 8-.702 27.57 0 50 22.43 50 50zm-98-43.062v-2.009c-4.736 1.978-9.08 3.07-12 3.07s-7.264-1.093-12-3.07v2.009l12 21zm-56-61.174c0 4.555 2.973 8.48 7.395 9.77 1.5.436 2.609 1.707 2.84 3.254l2.5 16.873c1.969 13.283 23.688 24.34 31.266 24.34s29.297-11.057 31.266-24.34l2.5-16.873c.23-1.547 1.34-2.818 2.84-3.254 4.422-1.289 7.395-5.215 7.395-9.77v-1.561c0-2.275-1.781-4.105-4.059-4.184-27.693-.019-38.896-14.121-42.373-20.019h-20.968c-6.949 0-12.602 5.652-12.602 12.602v3.418c0 2.17-1.73 3.943-3.898 3.998-2.301.059-4.102 1.896-4.102 4.186zm0-13.162c0-11.36 9.242-20.602 20.602-20.602h23.398c1.637 0 3.105.996 3.715 2.516.289.688 7.645 17.504 36.285 17.504.035 0 .066 0 .102.002 1.38.034 2.676.338 3.898.781v-13.379c0-19.533-15.891-35.424-35.422-35.424h-17.156c-19.531 0-35.422 15.891-35.422 35.424zm38.774 102.316-12.121-21.213-5.793 3.863 9.012 24.029zm16.389 4.453c1.83-8.411 5.795-16.016 11.279-22.269l-5.095-3.397-12.121 21.213zm90.837 10.629c0-23.158-18.84-42-42-42s-42 18.842-42 42 18.84 42 42 42 42-18.842 42-42zm-61.867-8.973c-.293-1.109-.098-2.291.539-3.246l16-24c1.484-2.227 5.172-2.227 6.656 0l16 24c.637.955.832 2.137.539 3.246-.297 1.107-1.051 2.037-2.078 2.551l-16 8c-.562.281-1.176.422-1.789.422s-1.227-.141-1.789-.422l-16-8c-1.027-.514-1.781-1.443-2.078-2.551zm9.707-2.578 10.16 5.078 10.16-5.078-10.16-15.238zm28.988 10.723c1.219 1.217 1.52 3.076.75 4.617l-16 32c-.68 1.355-2.062 2.211-3.578 2.211s-2.898-.855-3.578-2.211l-16-32c-.77-1.541-.469-3.4.75-4.617 1.223-1.223 3.078-1.516 4.617-.75l14.211 7.105 14.211-7.105c1.543-.76 3.399-.469 4.617.75zm-11.773 11.771-5.266 2.635c-1.125.562-2.453.562-3.578 0l-5.266-2.635 7.055 14.113z" fill="url(#SVGID_1_)"/></g></svg>